<?xml version="1.0" encoding="UTF-8"?>
<!DOCTYPE svg PUBLIC "-//W3C//DTD SVG 1.1//EN" "http://www.w3.org/Graphics/SVG/1.1/DTD/svg11.dtd">
<svg xmlns="http://www.w3.org/2000/svg" version="1.1" width="1024px" height="1024px" style="shape-rendering:geometricPrecision; text-rendering:geometricPrecision; image-rendering:optimizeQuality; fill-rule:evenodd; clip-rule:evenodd" xmlns:xlink="http://www.w3.org/1999/xlink">
<rect x="0" y="0" width="1024" height="1024" fill="#ffffff"/>
<g><path fill="#ffffff" stroke="#ffffff" stroke-width="0.5" d="M 0,0 c 341.33,0 682.67,0 1024,0 c 0,341.33 0,682.67 0,1024 c -341.33,0 -682.67,0 -1024,0 c 0,-341.33 0,-682.67 0,-1024 Z M 204.88,305.83 c -31.46,49.01 -50.93,103.11 -56.77,161.15 c -1.64,16.29 -2.25,32.62 -1.84,48.99 c 1.34,30.46 5.79,59.87 14.51,89.11 c 1.62,6.14 3.53,12.19 5.72,18.15 c 36.15,102.4 113.81,183.17 215.38,222 c 52.89,21.1 103.77,28.22 160.62,24.56 c 43.7,-3.47 83.65,-13.58 123.65,-31.48 c 3.61,-1.49 7.13,-3.14 10.59,-4.95 c 34.46,-18.2 64.61,-36.99 92.78,-64.34 c 89.72,-84.56 130.38,-205.23 110.08,-327.06 c -10.72,-58.47 -31.78,-107.05 -66.43,-155.15 c -18.66,-24.88 -39.44,-46.81 -63.89,-66.08 c -33.2,-27.36 -70.63,-47.73 -111.09,-62.18 c -60.56,-22.13 -129.37,-26.12 -192.57,-14.38 c -47.4,9.54 -87.67,25.32 -128.69,51.06 c -44.2,27.92 -83.96,66.41 -112.05,110.6 Z M 617.94,162.01 c 2.36,0.19 4.65,0.7 6.86,1.54 c 1.4,0.48 2.69,1.14 3.87,1.97 c -0.3,0.97 -1.45,0.28 -2.11,0.42 c -1.94,-0.56 -3.92,-0.93 -5.94,-1.11 c -1.2,-0.23 -2.13,-0.86 -2.79,-1.87 c 0.04,-0.32 0.07,-0.63 0.11,-0.95 Z M 389.36,188.01 c -2.19,0.5 -3.92,1.66 -5.18,3.48 c 0.64,0.39 1.31,0.44 2.04,0.14 c 1.26,-1.1 4.44,-1.6 3.54,-3.8 c 1.69,-0.11 2.29,0.64 1.79,2.22 c -0.52,2.03 -2.46,2.15 -4.01,2.97 c -0.64,0.66 -0.54,1.99 0.5,1.35 c 3.62,-2.07 7.28,-4.06 10.97,-5.98 c 1.77,-1.23 3.38,-3.26 4.68,-4.97 c -1.37,-0.04 -2.75,-0.21 -4.12,-0.51 c -0.51,-0.27 -0.68,-0.68 -0.5,-1.23 c 1.06,-0.67 2.19,-1.22 3.4,-1.64 c 0.18,-0.49 0.17,-0.98 -0.02,-1.49 c 2.25,-4.62 14.23,-8.51 19.09,-9.42 c 2.81,0.11 10.11,-0.59 8.72,4.32 c 0.79,0.55 1.62,0.62 2.5,0.2 c -1.14,-1.14 -1.86,-4.06 0.28,-4.58 c 6.36,-1.72 7.68,3.5 11.82,6.48 c 2.74,0.63 5.4,0.32 7.01,3.04 c 1.39,0.31 2.75,0.7 4.09,1.2 c 1.27,0.79 0.28,4.28 -1.25,4.52 c -1.28,0.27 -2.47,0.74 -3.57,1.41 c -0.16,1.4 0.45,2.35 1.82,2.87 c 2.12,0.62 4.25,1.17 6.41,1.66 c 2.13,1.5 4.29,2.96 6.45,4.38 c 0.21,0.54 0.1,0.98 -0.35,1.35 c -3.52,2.29 -7.18,4.3 -10.98,6.03 c -0.55,0.04 -1.07,-0.06 -1.56,-0.29 c -1.81,-1.55 -3.67,-3 -5.59,-4.37 c -2.21,-0.26 -3.23,0.69 -3.05,2.86 c 7,5.65 4.51,6.24 0.6,12.42 c -0.92,0.23 -1.79,0.1 -2.61,-0.38 c -1.64,-0.95 -3.26,-1.94 -4.84,-2.97 c -1.43,0.72 1.1,2.95 1.52,3.76 c 1.11,2.54 -4.25,1.89 -5.45,1.83 c -7.31,-2.17 -9.89,-0.44 -14.15,-7.66 c -3.09,-4.27 -10.73,2.11 -15.58,-1.46 c 3.34,-6.85 6.7,-3.6 12.72,-4.29 c 2.34,-0.69 4.72,-1.16 7.14,-1.43 c 1.6,-1.51 -3.13,-0.99 -1.01,-2.88 c 2.76,-1.07 5.33,-2.48 7.72,-4.21 c 4.01,-3.24 -2.25,-9.73 -5.83,-9.91 c -3.99,0.72 -8,1.01 -12.05,0.88 c -1.68,0.1 -3.51,0.68 -1.02,1.85 c 0.87,1.79 -4.33,3.83 -5.23,4.97 c -1.82,3.94 -3.78,5.49 -7.95,6.75 c -3.93,0.71 -7.8,1.54 -11.62,2.49 c -0.09,0.85 0.14,1.61 0.7,2.27 c 2.5,2.3 4.89,4.7 7.16,7.19 c -0.52,1.2 -4.16,1.8 -5.37,1.27 c -4.05,-3.03 -8.15,1.68 -12.47,1.91 c -1.81,-1.5 -1.85,-3.07 -0.13,-4.69 c 1.14,-1.02 2.18,-2.1 3.12,-3.24 c -1.78,-1.75 -3.51,1.92 -5,2.56 c -15.19,6.73 -31.47,14.46 -43.14,26.64 c -0.19,0.41 -0.17,0.8 0.06,1.18 c 4.35,2.6 -0.53,6.89 1.1,7.76 c 2.2,-0.32 4.42,-0.5 6.66,-0.53 c 8.41,4.68 8.15,6.28 18.9,6.11 c 1.7,0.74 -0.81,2.75 -1.24,3.54 c -0.91,1.74 -1.8,3.5 -2.65,5.28 c -2.23,3.15 0.46,10.59 4.02,10.26 c 8.07,-2.09 7.78,-10.5 9.32,-17.07 c 0.5,-0.61 1.11,-1.09 1.84,-1.42 c 8.41,-3.03 18.46,-7.15 14.14,-18 c 0.53,-0.79 1.14,-1.52 1.83,-2.18 c 6.33,-3.1 6,-8.51 10.04,-13.46 c 2.82,-3.04 7.28,-1.03 10.84,-0.95 c 7.04,-2.25 9.08,4.23 15.11,5.57 c 0.05,0.12 0.1,0.24 0.15,0.37 c -1.71,1.41 -4.56,7.57 -2.57,9.33 c 8.9,4.07 13.57,-7.42 19.92,-6.86 c 2,3.23 3.66,6.64 4.98,10.23 c 0.55,1.02 0.82,2.11 0.82,3.26 c -0.74,0.83 -2.34,1.22 -1.04,2.54 c 4.96,4.69 7.47,5.84 14.4,6.59 c 0.47,0.84 0.89,1.71 1.26,2.62 c 1.62,1.03 3.09,2.25 4.41,3.67 c 0.07,1.89 0.06,3.79 -0.02,5.71 c -0.27,1.03 -0.93,1.72 -1.97,2.07 c -7.12,2.12 -11.38,4.22 -17.43,8.34 c -5.64,2.98 -22.76,1.48 -29.36,1.49 c -2.21,0.19 -11.39,6.35 -14.32,7.89 c -0.86,0.86 -0.72,1.42 0.44,1.68 c 0.84,-0.51 1.66,-1.07 2.45,-1.68 c 5.86,-2.64 9.87,-4.27 16.46,-2.37 c 0.03,0.31 0,0.62 -0.08,0.92 c -1.05,1.72 -4.22,5.92 -1.82,7.65 c 1.74,0.76 9.48,4.65 9.69,6.37 c -0.07,0.73 -0.16,1.42 -0.28,2.09 c 3.53,0.47 4.87,-4.6 8.46,-4.86 c -0.64,0.68 -0.93,1.48 -0.88,2.4 c 0.72,0.85 1.57,1.58 2.53,2.2 c -1.85,1.22 -3.86,2.13 -6.01,2.74 c -4.01,3.57 -12.1,4.35 -17,6.93 c -2.02,1.46 -4.05,2.89 -6.08,4.3 c -2.18,-2.47 -2.08,-4.85 0.3,-7.14 c 1.37,-0.87 2.6,-1.88 3.69,-3.04 c -1.49,0.41 -3.04,0.82 -4.64,1.21 c -6.13,3.88 -13.12,6 -19.59,9.22 c -7.33,4.32 -4.48,10.43 -6.23,11.81 c -6.16,3.54 -11.95,6.08 -18.54,8.38 c -0.51,1.75 -1.3,3.38 -2.38,4.88 c -3,2.71 -4.89,6.36 -7.17,9.62 c -0.93,1.04 -1.87,2.06 -2.81,3.03 c -0.75,2.61 1.49,5.99 -0.04,8.11 c -0.28,1.26 1.11,1.94 -0.04,3 c -5.41,4.46 -18.64,12.13 -21.25,17.65 c -21.68,13.54 5.77,31.4 -7.7,43.46 c -0.81,0.52 -1.54,0.42 -2.19,-0.29 c -1.04,-2.25 -2.26,-4.4 -3.66,-6.44 c -0.74,-0.54 -1.43,-1.14 -2.07,-1.79 c -1.32,-5.12 0.9,-16.49 -5.78,-18.33 c -1.61,0.26 -3.2,0.46 -4.79,0.62 c -6.44,-4.9 -10.79,-1.71 -17.95,-0.27 c -1.88,1.07 -0.25,3.23 -1.47,4.46 c -3.59,-0.22 -7.19,-0.55 -10.79,-0.97 c -8.23,-0.48 -8.79,4.7 -14.9,8.39 c -5.26,4.75 -3.92,8.72 -4.02,14.86 c -3.18,7.57 -5.59,12.2 -4.19,21.01 c 3.43,10.56 4.33,24.41 19.11,18.5 c 3.25,0.78 5.91,1.32 7.17,-2.47 c 3.15,-10.1 3.06,-13.44 14.85,-15.02 c 2.16,0.07 2.95,1.19 2.37,3.34 c -2.54,5.8 -2.51,14.03 -5.73,19.21 c -0.13,1.93 -0.25,3.87 -0.37,5.8 c -1.71,2.82 -2.46,3.72 1.71,3.7 c 5.63,0.63 20.27,-4.28 19.92,5.57 c -1.78,9.64 -4.33,16.98 1.98,25.65 c -0.45,0.45 -0.9,0.9 -1.35,1.35 c -10.3,-3.73 -10.92,-5.71 -15.68,-15.69 c -3.03,-5.21 -14.09,-2.82 -19.37,-8.46 c -3.94,-2.4 -11.2,-11.28 -16.03,-9.94 c -11.1,6.23 -14.12,-2.22 -23.33,-6.8 c -3.22,-4.39 -13.49,-7.47 -13.09,-13.48 c 1.53,-6.55 0.93,-10.25 0.08,-16.79 c 0.08,-7.01 0.17,-14.01 0.29,-21.01 c 0.26,-5.29 -2.21,-8.22 -7.41,-8.8 c -2.68,0.26 -5.29,0 -7.83,-0.78 c -2.19,-4.25 3.15,-9.41 -0.97,-14.1 c -6.18,-7.16 -4.65,11.57 -4.52,13.74 c -0.28,1.27 -0.87,1.48 -1.79,0.64 c -1.96,-8.27 -1.72,-15.24 -0.9,-23.69 c 0.04,-2.48 -0.4,-4.86 -1.29,-7.14 c -0.94,-0.73 -1.85,-1.46 -2.73,-2.2 c 0.4,-8.68 3,-17.06 4.63,-25.53 c 3.19,-8.58 11.7,-16.16 11.28,-25.66 c 1.18,-2.31 2.06,-4.72 2.67,-7.23 c 0.92,-0.08 2.4,-5.6 4.13,-5.52 c -0.04,0.27 -0.07,0.54 -0.1,0.81 c 0.23,2.64 -2.2,3.27 -2.11,5.9 c -0.51,0.14 -0.65,0.41 -0.42,0.83 c 0.31,-0.19 0.45,-0.46 0.42,-0.83 c 3.18,-1.77 5.41,-7.55 6.65,-10.85 c 1.46,-2.44 2.99,-4.85 4.57,-7.21 c 0.42,-0.05 0.66,-0.29 0.73,-0.71 c 1.01,-2.04 1.54,-2.33 -0.46,-3.82 c 1.49,-1.77 2.64,-3.74 3.46,-5.92 c 17.13,-18.75 32.89,-39.25 53.2,-54.8 c 11.09,-8.33 22.56,-16.4 33.86,-24.32 c 3.76,-1.73 7.46,-3.6 11.09,-5.6 c 2.58,-0.11 5.17,-0.27 7.76,-0.5 c 0.61,0.44 1.29,0.77 2.02,0.99 c -0.07,0.15 -0.15,0.3 -0.22,0.46 c -2.16,0.66 -11.55,3.38 -12.44,4.91 c 1.88,0.85 4.61,-0.39 6.41,-1.24 c 1.6,-0.16 3.2,-0.32 4.8,-0.48 c 0.85,-0.72 1.74,-1.4 2.66,-2.04 c 1.57,-0.32 3.06,-0.88 4.46,-1.68 c 1.15,-0.2 2.3,-0.32 3.46,-0.34 c 4.52,0.03 16.11,-3.21 18.61,-2.59 c 0.29,0.62 -0.97,2.05 0.77,1.41 c 3.1,-1.66 6.38,-2.79 9.85,-3.41 c 0.93,-0.1 4.65,-2.85 3.23,-3.8 c -3.38,0.45 -3.26,0.72 -2.49,-2.39 c 0.14,-0.69 0.37,-1.36 0.69,-1.99 c 0.8,-0.86 1.61,-1.7 2.42,-2.54 c -0.47,-1.91 -2.88,-0.89 -2.68,-3.69 c 0.98,0.44 1.67,-1.42 2.27,-1.91 c 3.8,-0.31 5.84,-2.76 9.01,-4.44 c 1.1,-0.28 2.22,-0.48 3.34,-0.62 c 1.48,0.01 2.95,0.12 4.41,0.34 c 1.97,-0.63 3.84,-1.45 5.63,-2.49 c 1.78,-0.62 7.72,-1.31 8.99,-0.03 c -0.02,0.22 -0.04,0.44 -0.06,0.66 c -2.64,1.44 -5.28,2.91 -7.9,4.43 c -4.01,1.76 -8.61,1.95 -12.13,4.77 c -0.94,1.4 -1.75,2.89 -2.41,4.47 c -0.04,1.35 -0.09,2.71 -0.18,4.05 Z M 416.1,173.91 c 0.81,0.04 3.58,-0.9 2.48,-2.07 c -1.45,-0.09 -2.28,0.6 -2.48,2.07 Z M 393.04,175.01 c 0.28,1.61 2.61,0.59 2.81,-0.66 c -0.58,-1.27 -2.36,-0.2 -2.81,0.66 Z M 418.35,192.66 c 2.15,-4.64 6.87,-4.66 10.33,-2.2 c -2.63,0.36 -7.9,3.3 -10.33,2.2 Z M 620.54,198.08 c -3.52,2.91 -8.22,-0.24 -12.06,-0.89 c -2.23,-0.07 -4.33,-0.6 -6.3,-1.6 c -1.59,-1.67 -2.13,-3.64 -1.62,-5.91 c 1.95,-4.13 19.93,1.91 19.98,8.4 Z M 740.98,227.1 c 7.47,4.87 12.74,8.99 18.27,16.15 c 1.22,1.01 2.37,2.05 3.47,3.1 c -1.12,1.35 -1.7,-0.75 -2.75,0.21 c -0.12,1.14 3.21,2.99 3.97,3.89 c 13.67,7.24 23.44,20.75 33.02,32.62 c 5.47,6.87 10.93,13.54 15.71,20.87 c 0.13,5.23 4.94,8.23 6.79,13 c 0.81,1.26 -2.14,1.1 -1.09,3.37 c 2.22,3.87 4.17,7.88 5.85,12.03 c 2.39,3.93 4.64,7.94 6.73,12.01 c -0.68,-0.05 -1.37,-0.19 -2.07,-0.43 c -0.03,-0.75 -1.03,-2.42 -1.82,-1.51 c 0.23,0.95 0.83,1.46 1.82,1.51 c -0.15,0.41 12.94,21.37 13.74,24.04 c 4.05,10.61 9.08,20.77 12.26,31.7 c 0.63,1.46 0.16,2.2 -1.39,2.21 c -8.61,0.17 -34.85,-0.53 -41.51,0.59 c -3.56,1.53 -5.28,4.21 -5.14,8.04 c 0.07,30.34 0.11,60.67 0.1,91.01 c 0.05,1.95 0.06,3.64 -2.42,3.49 c -25.68,0.07 -51.35,0.04 -77.02,-0.08 c -3.08,-0.26 -5.31,-5.15 -9.99,-4.93 c -6.47,-0.71 -18.91,7.28 -23.81,3.87 c -4.99,-6.37 -8.59,-5.09 -15.21,-1.9 c -4.36,1.43 -17.39,-11.75 -22.34,-13.54 c -2.62,-6 -2.26,-6.64 -8.05,-10.13 c -0.46,-0.52 -0.74,-1.13 -0.84,-1.82 c -0.14,-21.99 -0.17,-43.98 -0.1,-65.97 c 0.04,-3.06 -0.95,-4.49 -1.96,-7.11 c 1.07,-1.81 2.21,-3.6 3.41,-5.35 c 1.28,-5.49 3.15,-6.81 8.73,-7.42 c 3.6,-1.43 9.47,-6.46 10.55,-10.13 c 0.16,-8.14 0.83,-16.46 9.56,-19.49 c 2.8,-1.57 4.7,-3.89 5.7,-6.95 c 3.06,-4.4 17.19,3.59 21.92,1.59 c 8.07,-4.76 17.48,-6.99 26.63,-4.07 c 4.72,-0.29 6.46,-0.92 10.81,1.15 c 3.63,-0.52 8.66,-2.67 9.63,2.62 c 1.09,0.13 2.2,0.3 3.32,0.49 c 1.42,1.86 -4.1,1.44 -1.7,4.01 c 6.76,3.15 0.93,7.61 3.87,11 c 7.27,6.42 15.9,6.88 21.88,15.27 c 3.92,2.34 7.61,4.98 11.08,7.92 c 1.31,0.22 2.14,-0.3 2.5,-1.55 c -0.16,-2.58 -0.08,-5.14 0.24,-7.7 c 1.11,-2.37 3.71,-2.1 5.72,-1.13 c 6.07,4.68 10.88,8.22 18.49,10.16 c 3.19,0.26 6.33,0.73 9.42,1.41 c 4.7,-1.94 1.3,-13.97 -0.36,-17.49 c -1.6,-3.24 -1.89,-3.69 -5.46,-3.2 c -0.92,-0.08 -1.81,-0.28 -2.68,-0.6 c -1.04,-0.8 -2.04,-1.64 -3.01,-2.52 c -1.33,-0.16 -1.31,1.62 -2.49,0.84 c -5.69,-3.29 -9.05,-9.53 -11.62,-15.37 c -1.3,-2.26 -4.88,-10.3 -8,-10.42 c -1.33,0.12 -2.6,0.45 -3.83,0.98 c -0.21,0.25 -0.26,0.54 -0.12,0.87 c 1.93,2.51 3.85,5.06 5.75,7.62 c 0.14,1.78 0.53,3.48 1.18,5.12 c -3.01,2.01 -1.19,1.36 -1.13,4.51 c -0.01,0.95 -0.43,1.26 -1.28,0.95 c -6.11,-6.6 -9.31,-14.81 -15.25,-21.5 c -1.4,-1.89 -2.51,-3.94 -3.32,-6.15 c -0.36,-5.58 -20.38,-19.84 -25.4,-24.09 c -0.65,-0.14 -4.52,-3.04 -3.75,-0.46 c 1.09,2.87 11.46,13.97 14.21,15.82 c 4.85,1.85 8.77,4.91 11.74,9.17 c 0.25,0.46 0.26,0.9 0.02,1.34 c -0.8,0.07 -1.46,0.39 -1.97,0.96 c 0.71,1.22 1.25,2.52 1.61,3.89 c -0.27,1.16 -0.77,2.21 -1.49,3.17 c 0.01,1.17 0.07,2.33 0.18,3.49 c -0.65,0.68 -1.1,1.46 -1.37,2.35 c 0.31,0.94 0.56,1.88 0.74,2.84 c -0.28,0.35 -0.62,0.41 -1.03,0.19 c -4.34,-1.63 -7.78,-4.36 -10.32,-8.2 c -0.16,-0.37 -0.09,-0.68 0.22,-0.92 c 2.75,0.47 5.65,1.83 8.23,-0.05 c 1.04,-1.07 1.2,-2.27 0.47,-3.61 c -4.14,-6.79 -12.49,-11.26 -18.31,-16.59 c -4.57,-3.05 -10.8,-13.01 -16.46,-12.64 c -8.66,4.63 -8.19,-0.34 -15.14,-0.56 c -3.91,0.73 0.79,7.29 -3.58,9.53 c -5.66,2.15 -10.89,5.21 -7.4,12.11 c -3.76,14.2 -10.83,9.37 -22.18,12.84 c -0.71,0.01 -1.41,-0.08 -2.09,-0.28 c -1.96,-1.65 -3.93,-3.29 -5.9,-4.92 c -2.46,-1.47 -8.01,0.59 -9.16,-1.91 c -1.11,-3.27 -2.19,-6.56 -3.24,-9.85 c 0.43,-3.3 0.68,-6.62 0.75,-9.95 c -0.7,-4.05 -1.63,-8.05 -2.78,-11.99 c 0.39,-1.92 1.59,-2.78 3.59,-2.57 c 2.36,0.38 4.71,0.88 7.04,1.47 c 5.4,0.11 9.43,0.2 14.42,2.56 c 2.58,1.03 5.77,1.72 7.05,-1.5 c 0.94,-6.18 -0.15,-9.13 -3.91,-13.68 c -4.29,-6.78 -10.38,-5.7 -14.97,-10.72 c -0.22,-0.64 -0.21,-1.28 0.03,-1.91 c 3.51,-0.85 6.97,-0.65 10.38,0.57 c 3.39,0.78 -1.75,-2.3 0.12,-3.46 c 1.92,0.69 3.9,1.17 5.94,1.46 c 2.26,0.19 5.14,-2.61 6.02,-4.54 c 1.4,-0.92 2.66,-2.01 3.76,-3.28 c 1.56,-1.82 3.24,-6.25 5.59,-6.98 c 1.74,-0.79 3.57,-1.12 5.49,-1 c 1.26,-0.31 1.7,-1.12 1.32,-2.42 c -1.18,-3.57 -4.54,-6.32 -5.82,-10.08 c -4.75,-2.98 0.29,-3.88 2.99,-4.46 c 4.36,3.99 3.89,12.86 13.06,17.25 c 2.07,-0.47 10.98,3 12.5,3.15 c 4.24,-0.71 6.48,-1.21 10.77,0.14 c 2.24,-0.22 -1.88,-8.63 -2.89,-9.53 c -0.5,-0.7 -0.46,-1.33 0.11,-1.89 c 1.85,0.1 1.73,1.93 3.85,1.75 c 2.08,-1.25 -5.27,-6.04 -6.35,-6.56 c -0.66,-0.74 -3.03,-2.28 -1.49,-3.32 c 1.09,-0.08 2.15,-0.24 3.18,-0.49 c -1.3,-0.39 -2.65,-0.65 -4.05,-0.79 c -4.96,-2.22 -9.49,-7.63 -14.26,-10.61 c -5.94,-4.32 0.88,-12.4 -8.7,-12.92 c -0.08,0.12 -0.15,0.25 -0.23,0.37 c 0.74,0.85 1.16,1.83 1.27,2.94 c -4.09,8.16 4.93,11.82 9.78,16.45 c 1.7,2.07 1.37,2.67 0.58,4.94 c 0.31,2.21 2.37,5.18 4.76,5.27 c -0.69,0.62 -0.74,1.25 -0.14,1.89 c 0.1,0.82 1.49,3.04 0.49,3.62 c -4.12,-0.08 -6.28,2.12 -10.61,0.25 c -1.69,-0.74 -1.2,-5.04 -3.31,-6.67 c -2.83,-2.34 -5.47,-4.89 -7.91,-7.64 c -3.91,-3.4 -3.49,-2.73 -8.02,-0.77 c -3.21,0.6 -6.2,0 -8.96,-1.79 c -3.86,-3.63 -7.74,-10.94 -11.72,-15.08 c -2.62,-3.3 3.5,-4.32 5.32,-5.58 c 6.7,-4.36 -3.46,-13.3 -4.71,-18.29 c -0.77,-0.51 -1.44,-1.13 -2.01,-1.85 c 0.24,-1.57 0.49,-3.15 0.77,-4.74 c 0.11,-1.51 -0.48,-2.63 -1.75,-3.35 c -0.9,0.6 -1.87,1.11 -2.91,1.52 c -2.47,0.5 -9.1,-4.66 -6.75,-6.5 c 2.58,-0.74 6.06,2.47 8.28,3.54 c 0.83,-0.2 1.68,-0.39 2.53,-0.56 c 23,7.64 40.4,23.19 59.5,37.31 c 0.54,0.26 1.08,0.28 1.61,0.05 c -1.02,-1.14 -2.05,-2.29 -3.09,-3.43 c -0.75,-1.05 0.84,-1.24 1.5,-0.98 Z M 426.2,200.68 c 0.49,0.27 7.6,-2.29 8.59,-2.16 c -3.54,-2.64 -6.54,-1.46 -8.59,2.16 Z M 598.84,201.42 c 5.65,0.15 11.91,-0.63 16.92,2.6 c 1.35,0.79 6.2,3.56 4.32,5.59 c -4.67,2.85 -14.12,4.14 -19.57,3.29 c -2.22,-1.1 -9.28,-0.62 -10.39,-2.57 c -0.5,-3.38 0.18,-3.15 -3.63,-3.29 c -1.22,0.03 -2.19,-1.15 -0.88,-1.9 c 1.37,-0.44 2.76,-0.61 4.19,-0.5 c -1.74,-0.3 -3.49,-0.56 -5.27,-0.76 c -1.3,-0.18 -1.75,-0.89 -1.36,-2.14 c 6.46,-4.38 9.24,-0.61 15.67,-0.32 Z M 377.2,216.73 c 1.1,-1.98 4.82,-5.03 7.27,-2.8 c 0.68,1.75 -6.02,2.49 -7.27,2.8 Z M 693,267.97 c 1.56,1.09 -1.09,3.63 -0.7,5.33 c 0.49,0.77 0.82,1.62 0.98,2.54 c -0.12,0.49 -0.42,0.8 -0.92,0.92 c -3.32,0.23 -15.54,1.47 -18.15,0.69 c -1.01,-0.38 -2.3,-0.08 -2.89,-1.15 c 0.33,-1.36 0.85,-2.65 1.58,-3.85 c -1.11,-0.93 -2.31,-1.77 -3.59,-2.53 c -0.24,-0.69 -0.19,-1.35 0.17,-1.98 c 3.8,-2.47 -0.71,-3.23 1.09,-4.8 c 0.52,-0.31 3.8,0.25 2.9,-1.16 c -1.58,-3.37 -6.25,-6.93 -9.42,-8.51 c -1.16,-0.86 -1.31,-3.99 -3.08,-2.57 c -0.45,0.27 -0.92,0.33 -1.42,0.19 c -0.93,-1.07 -1.93,-2.09 -3.01,-3.05 c -0.85,-1.96 -1.52,-3.97 -2.01,-6.01 c 2.91,-2.92 5.58,-6.26 10.13,-4.29 c 1.66,0.75 0.86,2.27 0.68,3.58 c 0.61,1.16 2.94,0.37 4.02,1 c 5.17,2.05 0.89,4.47 2.05,6.79 c 5.25,4.89 10.59,10.08 15.6,15.27 c 2.12,1.46 4.2,1.48 5.99,3.59 Z M 660.62,253.1 c 1.87,2.7 3.09,10.76 1.87,13.62 c -3.46,1.67 -11.92,4.92 -15.48,1.59 c -3.19,-2.18 -1.58,-4.25 0.71,-6.1 c 0.79,-2.61 -5.1,-5.17 -2.95,-6.82 c 1.64,0.22 3.26,0.16 4.86,-0.2 c 0.41,-0.88 0.86,-1.73 1.34,-2.57 c 3.33,-1.69 6.55,-1.53 9.65,0.48 Z M 751,257.69 c -0.08,0.86 0.99,3.05 1.95,1.77 c -0.2,-1.07 -0.85,-1.66 -1.95,-1.77 Z M 462.03,261.91 c 0.71,-0.24 2.23,0.14 1.42,1.14 c -1.22,1.56 -5.65,4.7 -6.07,6.35 c 0.59,1.24 3.45,-0.44 4.63,0.07 c 0.82,0.57 1.69,1.04 2.6,1.42 c 1.78,0.14 8.21,-1.45 5.83,2.53 c 0.66,0.48 1.29,0.99 1.9,1.53 c 0.38,1.13 -0.79,1.49 -1.03,2.48 c 0.66,0.32 1.38,0.5 2.16,0.55 c 0.15,0.2 0.3,0.39 0.46,0.58 c -0.26,2.36 0.05,8.39 -3.42,8.51 c -1.45,-0.33 -2.72,-1.03 -3.79,-2.08 c -0.18,-0.93 -0.29,-1.85 -0.35,-2.75 c -0.21,0.02 -0.42,0.03 -0.63,0.05 c -0.74,0.95 -1.64,1.72 -2.68,2.32 c -1.1,0.57 -2.23,0.66 -3.39,0.26 c -0.27,-0.56 -0.39,-1.15 -0.34,-1.78 c -3.43,-1.09 -10.19,-0.89 -13.88,-0.84 c -0.43,-0.01 -0.77,-0.18 -1.02,-0.51 c -0.29,-0.31 -0.41,-0.67 -0.36,-1.09 c 3.76,-6.24 10.43,-17.31 17.96,-18.74 Z M 705.77,269.88 c 0.06,0.49 0.33,0.81 0.81,0.94 c 0.92,-0.6 -0.44,-0.92 -0.81,-0.94 Z M 303.93,291.95 c 1.08,3.2 5.92,0.43 7.63,-0.82 c 3.5,-1.89 4.62,-0.03 7.92,0.61 c 3.06,0.07 9.72,-1.49 8.37,-5.83 c -3.46,-14.26 -17.91,5.57 -23.92,6.04 Z M 307,318 c 0.16,0.82 -0.33,2.1 0.61,2.54 c 1.47,-0.96 2.81,-2.1 4.02,-3.42 c 2.69,-3.21 1.61,-7.31 4.19,-10.77 c 1.47,-1.28 11.03,-11.27 12.68,-8.29 c 1.18,3.47 2.47,6.91 3.88,10.31 c 1.16,2.79 4.42,-5.71 5.3,-6.18 c 1.42,-0.59 2.88,-1.04 4.39,-1.35 c 0.57,-0.67 -1.17,-3.26 -1.29,-4.07 c -5,-4.08 -15.88,-2.98 -21.49,-0.09 c -5.44,3.21 -12.21,15.48 -12.29,21.32 Z M 344.1,307.18 c 1.5,1.58 12.43,-0.93 12.9,-2.72 c -1.62,-1.63 -10.57,2.55 -12.9,2.72 Z M 328.02,316 c 0.13,0.83 0.62,1.19 1.48,1.08 c 4.97,-1.61 9.84,-3.5 14.6,-5.68 c 0.36,-0.22 0.58,-0.54 0.67,-0.95 c -3.37,-1.62 -13.28,4.16 -16.75,5.55 Z M 797.38,330.87 c 0.64,8.83 3.37,13.82 7.86,21.19 c 4.16,2.08 7.37,-3.07 11.79,0.23 c 3.3,2.53 6.16,6.75 10.49,7.47 c 1.36,0.06 1.75,-0.54 1.18,-1.78 c -4.45,-7.1 -9.41,-14.72 -16.62,-19.25 c -6.62,-0.04 -5.8,-4.37 -8.65,-8.64 c -1.59,-1.31 -3.2,-2.58 -4.83,-3.82 c -1.06,1.18 -1.06,3.08 -1.22,4.6 Z M 809.34,332.32 c 0.24,1.2 0.93,1.97 2.07,2.32 c 1.03,-1.13 -0.49,-3.4 -1.67,-3.95 c -0.16,0.53 -0.3,1.08 -0.4,1.63 Z M 737.99,333 c 0.27,-2.2 2.29,-3 3.81,-1.25 c 4.78,10 -0.88,12.06 -3.81,1.25 Z M 349.98,341 c 0.02,0.41 0.21,0.71 0.59,0.88 c 0.51,-0.55 0.49,-1.09 -0.06,-1.63 c -0.35,0.12 -0.52,0.37 -0.53,0.75 Z M 177.02,435 c 0.03,-6.84 0.03,-13.68 0.01,-20.52 c -0.1,-0.85 0.14,-1.57 0.72,-2.16 c 9.91,-0.14 19.83,-0.15 29.75,-0.04 c 1.11,0.19 4.09,-0.29 4.45,1.25 c 0.08,32.65 0.12,65.31 0.12,97.97 c 0.08,1.08 -0.22,3.25 0.92,3.89 c 2.81,0.42 5.65,0.57 8.51,0.45 c 56.32,0.01 112.64,-0.01 168.95,-0.09 c 1.29,-0.14 1.86,-0.89 1.71,-2.23 c -0.04,-33.31 -0.03,-66.63 0.04,-99.94 c 0.05,-1.77 2.11,-1.42 3.3,-1.5 c 79.93,0.02 159.85,0.09 239.78,0.22 c 0.75,0.51 1.11,1.24 1.08,2.17 c -0.18,33.09 -0.12,66.18 0.19,99.27 c 0.09,1.27 0.76,1.94 2,2 c 3.99,0.08 7.97,0.12 11.95,0.12 c 55.26,-0.02 110.51,-0.08 165.76,-0.17 c 0.74,-0.52 1.09,-1.24 1.06,-2.16 c 0.02,-18.5 -1.11,-38.25 0.29,-56.56 c 0.45,-0.64 1.08,-0.93 1.88,-0.88 c 10.94,-0.02 21.89,0.03 32.83,0.15 c 1.46,0.54 1.19,3.07 1.26,4.31 c -0.22,29.33 -0.34,58.65 -0.33,87.97 c -0.13,0.56 -0.46,0.94 -0.99,1.15 c -2.25,0.17 -4.5,0.25 -6.76,0.26 c -80.33,-0.02 -160.66,-0.1 -241,-0.26 c -1.84,0.29 -2.91,-0.44 -3.22,-2.2 c -0.17,-8.99 -0.23,-17.99 -0.17,-26.99 c 0.1,-0.9 -0.17,-1.65 -0.8,-2.24 c -55.27,-0.23 -110.54,-0.29 -165.81,-0.18 c -1.37,0.23 -6.34,-0.52 -7.05,0.81 c -0.4,9.54 -0.44,19.1 -0.11,28.66 c 0.09,0.96 -0.24,1.72 -0.99,2.28 c -82.87,0.08 -165.74,0.04 -248.62,-0.12 c -1.09,-0.7 -0.49,-2.11 -0.69,-3.19 c 0.05,-37.16 0.05,-74.33 -0.02,-111.5 Z M 817.13,427 c 0.03,-4.16 0.06,-8.33 0.09,-12.49 c -0.04,-0.76 0.23,-1.36 0.82,-1.8 c 5.14,-0.43 10.29,-0.58 15.46,-0.45 c 5.86,0.24 13.55,-0.44 19.16,0.53 c 0.61,0.56 0.88,1.27 0.81,2.12 c 0.03,10.21 -0.09,20.41 -0.38,30.61 c -0.17,0.48 -0.5,0.8 -0.99,0.94 c -8.87,0.1 -17.73,0.09 -26.6,-0.03 c -2.62,0.03 -5.2,-0.19 -7.75,-0.64 c -0.35,-0.38 -0.5,-0.83 -0.45,-1.35 c -0.14,-5.81 -0.2,-11.62 -0.17,-17.44 Z M 332.19,418.07 c 0.32,-1.41 2.37,-1.25 2.98,-0.05 c 0.79,2.1 -3.05,2.86 -2.98,0.05 Z M 325.18,436.48 c -3.98,-1.81 -8.05,-3.36 -12.21,-4.64 c -2.78,0.13 -5.85,1.3 -7.32,3.76 c -0.52,0 -1.01,-0.11 -1.46,-0.34 c 0.56,-2.17 1.82,-3.79 3.79,-4.86 c 13.66,-6.84 24.17,3.98 34.46,11.58 c 0.44,0.63 0.38,1.2 -0.16,1.7 c -1.94,0.11 -3.87,0.26 -5.8,0.46 c -5.03,0.62 -6.77,-6 -11.3,-7.66 Z M 372.03,455.19 c -0.34,0.48 -0.58,1.01 -0.73,1.58 c -3.26,-1.26 -8.28,-0.84 -11.77,-0.67 c -2.59,0.2 -0.97,3.46 -2.85,2.91 c -0.73,-0.95 -1.5,-1.86 -2.31,-2.72 c -2.46,-0.27 -4.9,-0.55 -7.32,-0.84 c 1.28,-0.45 2.63,-0.67 4.03,-0.68 c 0.8,-0.41 2.19,-0.3 2.5,-1.33 c -2.02,-3.46 -2.34,-5.9 -6.99,-5.69 c -2.01,-0.83 -1.11,-3.6 0.81,-3.64 c 3.04,1.04 6.26,2.41 9.24,3.68 c 7.82,-0.82 9.39,4.06 15.39,7.4 Z M 427.01,471 c -0.06,3.48 0.01,6.95 0.2,10.42 c 0.46,0.94 1.23,1.38 2.32,1.33 c 56.62,0.12 113.23,0.09 169.84,-0.08 c 1.22,-0.17 1.79,-0.88 1.73,-2.13 c 0.07,-10.68 0.05,-21.36 -0.05,-32.04 c -0.14,-0.9 -0.66,-1.38 -1.56,-1.44 c -56.99,-0.15 -113.98,-0.15 -170.97,-0.02 c -0.88,0.11 -1.34,0.61 -1.4,1.49 c -0.05,7.49 -0.09,14.98 -0.11,22.47 Z M 328.17,454.78 c 0.76,-2.88 8.05,0.87 9.68,1.61 c -1.69,2 -7.72,-0.65 -9.68,-1.61 Z M 781.08,457.1 c 0.57,1.63 4.2,0.22 4.78,-0.62 c -0.93,-1.97 -3.35,0.62 -4.78,0.62 Z M 358.63,485.85 c -1.11,0.67 -1.93,1.59 -2.47,2.75 c -0.07,0.87 0.33,1.29 1.2,1.26 c 2.2,-0.72 3.53,-2.22 3.96,-4.5 c 1.06,-0.29 9.09,4.42 10.3,5.44 c 3.24,0.11 6.49,0.22 9.74,0.33 c 0.63,0.65 0.86,1.43 0.7,2.35 c -0.13,3.32 -0.22,6.65 -0.26,9.97 c -0.01,0.5 -0.21,0.91 -0.59,1.22 c -14.93,1.83 -33.86,0.21 -49.22,0.13 c -0.02,-0.65 0.04,-1.29 0.19,-1.93 c 3.47,1.42 5.89,0.37 7.25,-3.15 c 2.45,-11.27 7.11,-9.94 16.19,-14.47 c 0.63,-0.53 1.26,-1.05 1.89,-1.57 c 1.05,0.33 1.42,1.05 1.12,2.17 Z M 355.74,493.72 c 0.23,1.16 0.45,2.32 0.67,3.48 c 0.87,0.63 1.41,0.41 1.62,-0.68 c -0.05,-0.86 -1.03,-5.09 -2.29,-2.8 Z M 502.9,568.19 c -0.46,0.07 -0.81,0.3 -1.06,0.69 c -0.79,1.14 -1.78,2.06 -2.98,2.75 c -1.04,0.05 -1.96,0.38 -2.77,0.99 c -0.28,2.32 3.22,1.39 4.2,0.28 c 1.03,-0.72 1.83,-1.64 2.41,-2.75 c 0.15,-0.41 0.3,-0.81 0.46,-1.22 c 7.51,-3.52 16.6,0.66 21.74,6.62 c 4.08,0.78 3.99,0.08 6.72,3.24 c 10.04,1.07 17.34,-2.31 25.35,5.73 c 4.99,5.57 8.11,6.59 15.33,7.93 c 5.98,3.92 6.22,17.53 1.15,22.49 c -6.45,6.26 -12.02,9.78 -15.87,18.13 c -8.41,5.67 -7.74,6.5 -6.7,16.43 c 0.7,12.76 -13.33,37.25 -26.52,40.29 c -6.35,-0.12 -23.4,5.93 -25.89,11.91 c -2.01,4.07 -0.79,11.45 -3.52,14.81 c -8.51,8.65 -14.57,21.07 -24.96,27.37 c -6.62,0.47 -9.95,0.53 -15.73,-2.79 c -1.82,-0.66 -1.64,0.98 -0.66,1.91 c 4.05,3.07 4.8,4.84 0.85,8.41 c 0.84,0.71 1.76,1.31 2.78,1.82 c 3.52,2.53 0.02,6.61 -2.81,7.76 c -5.94,1.36 -11.71,1.03 -17.74,1.27 c -0.99,0.75 0.34,1.64 0.33,2.59 c -0.49,1.71 -0.08,4.03 -2.43,4.35 c 0.02,-0.94 2.35,-0.09 2.93,-0.55 c 4.78,-1.45 19.07,-4.72 23.5,-4.6 c 2.04,1.23 2.53,2.91 1.46,5.01 c -8.22,8.41 -25.01,2.74 -32.98,12.89 c -2.46,1.39 -4.58,1.59 -3.03,5.17 c 0.64,1.49 6.02,5.2 5.94,6.39 c -1.65,2.19 -3.09,4.53 -4.34,7.02 c -2.3,4.05 5.29,8.74 7.43,11.43 c 2.69,1.91 5.56,3.47 8.59,4.7 c 0.19,0.59 0.01,1.04 -0.54,1.34 c -8.28,4.07 -13.66,-0.43 -21.06,-3.92 c -8.09,0.32 -19.16,-13.93 -21.58,-20.57 c -0.66,-3.04 3.41,-5.01 -1.47,-7.39 c -0.24,0.03 -0.49,0.06 -0.74,0.09 c -0.62,0.49 -1.27,2.45 -2.15,0.9 c 0.52,-2.17 0.97,-4.36 1.33,-6.58 c -1.4,-3.19 -2.85,-6.37 -4.33,-9.53 c 1.27,-6.17 -2.41,-11.12 -1.66,-17.48 c -3.52,-7.58 -1.08,-10.29 -0.17,-18.05 c 0.78,-7.66 -2.11,-12.99 -3.06,-19.97 c 0.44,-11.16 0.34,-20.97 -1.39,-31.97 c 1.38,-6.77 0.86,-13.38 -1.56,-19.85 c -5.82,-16.64 -24.43,-17.12 -35.32,-29.56 c -7.74,-11.34 -12.94,-24.54 -20.68,-36.14 c -1.17,-3.5 -7.76,-7.48 -8.46,-8.6 c -2.8,-6.42 -2.46,-8.15 -1.02,-14.9 c -0.79,-5.42 -4.64,-7.17 -0.49,-14.29 c 0.56,-0.23 1.14,-0.32 1.75,-0.28 c 33.34,0.15 66.68,0.21 100.02,0.18 c 5.95,-0.19 13.8,1.51 16.15,-5.77 c 0.16,-8.55 0.33,-17.1 0.5,-25.65 c 0.98,-1.14 8.61,-0.71 10.33,-0.61 c 1.94,1.16 3.99,2.05 6.16,2.68 c 12.54,-2.91 17.62,2.07 27.39,8.54 c 7.19,1.17 7.55,4.49 10.88,10.28 c 1.75,3.25 5.77,5.95 3.07,9.87 c -1.24,1.8 -2.53,3.55 -3.88,5.24 c 0.24,0.53 0.66,0.72 1.26,0.57 c 2.81,-0.87 10.01,-1.96 9.54,2.95 Z M 747.27,717.78 c 1.06,-2.05 0.94,-16.59 2.43,-20.32 c -1.76,-13.91 6.37,-25.73 2.38,-39.96 c -1.37,-17.58 5.31,-32.96 14.42,-47.49 c 3.38,-14.18 1.31,-26.74 -2.46,-40.52 c -1.06,-2.92 -2.01,-5.87 -2.86,-8.83 c 0.65,-0.57 1.42,-0.78 2.31,-0.63 c 29.94,-0.01 59.88,0.07 89.82,0.22 c 0.34,0.55 0.31,1.11 -0.09,1.69 c -4.36,8.53 -9.02,16.45 -12.27,25.54 c -1.95,6.47 1.85,14.41 -1.89,20.12 c -0.35,6.92 -1.73,12.73 -3.58,19.41 c -3.41,10.8 -18.87,18.71 -21.35,26.51 c -0.87,9.71 -1.49,14.97 -10.81,19.34 c -1.88,1.79 -0.75,4.52 -2.07,5.8 c -8.86,8.7 -14.63,19.82 -24.62,27.57 c -3.85,2.55 -26.04,12.5 -29.36,11.55 Z M 820.93,622 c -0.11,0.73 0.08,1.34 0.58,1.85 c -0.04,-1.34 5.13,-12.26 2.48,-11.22 c -1.93,2.35 -2.47,6.45 -3.06,9.37 Z M 822.66,673.01 c -0.99,-10.1 8.46,-19.83 11.94,-28.97 c 1.71,-6.9 0.64,-8.44 6.39,-12.55 c 2.62,-3.59 8.97,-9.85 10.12,-13.88 c 1.09,-1.26 1.32,0.55 1.02,1.37 c -1.44,3.51 -1.9,6.68 -2.5,10.33 c -6.59,13.13 -11.64,27.42 -20.69,39.18 c -1.8,2.14 -3.64,4.22 -5.52,6.26 c -0.47,-0.47 -0.73,-1.05 -0.76,-1.74 Z M 396.88,764.95 c 0.31,1.46 -0.48,6.64 1.51,6.89 c 1.22,-0.97 0.46,-5.97 -0.38,-7.35 c -0.55,-0.35 -0.93,-0.19 -1.13,0.46 Z M 428.3,766.3 c 0.58,1.06 1.19,2.1 1.82,3.13 c 1.07,0.7 1.69,0.38 1.86,-0.95 c 0.23,-2.16 -2.1,-2.83 -3.68,-2.18 Z M 430.53,774 c 0.82,1.84 2.21,2.57 4.18,2.18 c 1.77,-1.6 -3.46,-4.27 -4.18,-2.18 Z M 452.19,808.22 c 1.67,-0.61 10.58,-0.78 11.65,0.46 c -0.27,3.26 -11.19,2.3 -11.65,-0.46 Z M 648.98,834.35 c 1.3,0.39 2.41,1.06 3.35,1.99 c -76.57,33.02 -163.14,36.71 -242.55,11.27 c 0.85,-0.81 1.88,-1.12 3.09,-0.92 c 13.77,3.38 25.43,4.64 39.19,-0.23 c 3.33,-1.57 -0.45,-3.96 2.29,-4.64 c 5.97,-1.85 10.86,-2.06 17.1,-1.94 c 3.94,-2.46 7.71,-6.03 12.68,-6.23 c 0.77,0.48 2.74,1.54 2.51,2.58 c -3.21,1.39 -6.43,2.79 -9.65,4.19 c -1.04,0.53 -1.86,1.26 -2.46,2.18 c 13.43,14.76 27.28,12.11 44.98,14.67 c 14.24,-1.76 31.42,3.97 43.27,-6.79 c 4.2,-1.91 18.68,-3.45 24.24,-4.92 c 19.31,-0.14 43.97,-4.71 61.96,-11.21 Z"/></g>
<g><path fill="#fdfdfd" stroke="#fdfdfd" stroke-width="0.5" d="M 596.88,157.73 c -1.7,0.02 -5.44,-0.42 -6.64,0.99 c -0.05,2.84 -0.03,2.13 -1.77,3.79 c 1.98,3.1 -1.12,4.81 -3.9,4.65 c -0.96,1.46 5.86,4.67 2.57,6.36 c -2.24,0.72 -7.09,-0.13 -3.84,3.67 c 1.72,1.23 3.39,2.53 5.01,3.89 c 1.07,1.59 0.76,2.78 -0.94,3.57 c -1.35,-0.23 -2.7,-0.3 -4.06,-0.2 c 0.86,0.37 2.28,1.57 1.11,2.47 c -2.44,0.73 -4.8,1.66 -7.09,2.79 c -5.56,0.68 -11.14,1.17 -16.73,1.47 c -7.01,5.57 -10.91,8.87 -20.63,8.43 c -2.07,0.87 -4.15,1.73 -6.22,2.59 c -0.95,1.44 -0.5,2.11 -2.14,3.18 c -0.12,3.49 -3.54,5.04 -6.33,6.27 c -0.5,0.2 -0.87,0.54 -1.11,1.02 c -1.49,5.18 -3.76,14.14 -11.12,10.62 c -4.06,-6.05 -14.22,-2.64 -15.52,-7.29 c -1.68,-5.44 -5.74,-9.52 -5.61,-15.4 c -3.91,-4.81 -1.28,-8.81 2.46,-12.68 c 2.16,-2.06 4.57,-2.44 7.24,-1.15 c 2.02,-0.02 3.82,-3.29 5.08,-4.54 c 0.19,-0.44 0.06,-0.74 -0.39,-0.92 c -1.75,-0.03 -3.43,-0.38 -5.04,-1.04 c -2.8,-0.61 1.46,2.19 -1.12,3.3 c -2.55,0.51 -5.04,0.26 -7.45,-0.77 c -1.26,-1.38 3.33,-4.55 4.43,-5.15 c 2.42,-0.03 3.8,-0.62 6.42,0.28 c 0.48,0.07 0.86,-0.08 1.11,-0.48 c -1.61,-3.97 -4.8,-1.73 -7.61,-1.1 c -6.77,-2.77 6.06,-5.34 1.58,-10.48 c -2.36,-2.63 -3.27,-5.24 -7.33,-5.45 c -5.48,-0.38 -10.97,-0.66 -16.46,-0.83 c -2.75,-2.87 1.99,-3.74 0.09,-4.82 c -0.02,-0.65 0.23,-1.18 0.74,-1.57 c 3.68,-0.52 7.34,-1.15 10.99,-1.88 c 1.62,0.01 3.23,-0.11 4.82,-0.36 c 1.52,-0.55 3.06,-1 4.63,-1.37 c 2.33,-1.24 2.15,-1.7 -0.54,-1.39 c -1.73,0.47 -3.46,0.92 -5.21,1.36 c -3.95,0.52 -7.9,1.01 -11.86,1.47 c -0.81,0.67 -4.59,0.59 -4.47,1.7 c -2.25,0.47 -4.43,1.16 -6.56,2.07 c -4.82,0.54 -9.56,1.41 -14.2,2.61 c 0.18,0.71 0.62,1.19 1.3,1.44 c 1.03,-0.06 10.48,1 6.51,3.62 c -3.55,1.31 -12.51,1.53 -16.54,1.82 c -3.8,0.84 -7.71,2.68 -11.61,2.81 c -3.12,0.47 -6.27,0.77 -9.43,0.9 c -2.01,-0.11 -3.97,-0.49 -5.88,-1.13 c -0.28,-0.38 -0.35,-0.8 -0.21,-1.26 c 0.65,-3.04 2.53,-4.66 5.62,-4.85 c 0.52,-0.03 0.91,-0.27 1.16,-0.73 c 2.32,-0.4 4.39,0.49 6.36,1.52 c 2.11,0.21 14.2,1.18 15.14,-0.08 c -0.65,-2.04 -5.76,-1.15 -7.37,-0.82 c -1.16,-0.1 -2.31,-0.29 -3.44,-0.56 c -0.89,-1.13 -0.81,-2.19 0.23,-3.18 c 3.42,-0.08 -0.86,-1.57 0.61,-2.69 c 18.13,-5.25 37.94,-7.73 56.78,-9.11 c 26.64,0.88 54.92,-0.85 80.8,6.33 c 0.54,0.38 2.92,0.49 2.05,1.53 c -1.16,0.09 -2.28,0.3 -3.37,0.61 c 3.15,0.26 6.33,0.42 9.53,0.46 c 5,1.1 9.59,2.22 14.78,2.22 c 0.43,0.38 0.63,0.87 0.59,1.47 Z M 447.13,155.89 c 0.63,0.21 1.17,0.08 1.61,-0.38 c -0.73,-0.65 -1.27,-0.52 -1.61,0.38 Z M 575.25,160 c 3.51,2.98 5.97,6.1 11.47,4.52 c -5.08,-1.85 -3.38,-5.29 -11.47,-4.52 Z M 413.76,159.33 c 0.97,0.35 1.73,0.95 2.28,1.8 c -0.67,0.18 -6.25,1.5 -4.43,2.77 c 0.72,0.05 1.36,0.26 1.91,0.63 c -0.57,1.36 -1.59,2.15 -3.05,2.39 c -3.72,0 -7.44,0.25 -11.14,0.73 c -2.22,0.57 -4.38,1.33 -6.48,2.28 c -3.52,1.19 -6.99,2.52 -10.4,3.98 c -0.81,0.55 -1.34,1.31 -1.59,2.27 c -1.3,-0.03 -2.21,0.52 -2.75,1.65 c -2.83,0.44 -5.56,1.27 -8.18,2.47 c -0.73,0.84 -1.41,1.67 -2.04,2.52 c 0.64,1.3 1.08,2.65 1.33,4.05 c -0.74,0.58 -1.46,1.17 -2.16,1.78 c -3.35,1.47 -6.15,4.15 -9.76,4.9 c -3.75,0.7 -8.14,0.61 -11.43,2.78 c -2.57,0.24 -4.27,2.12 -7.01,1.86 c -0.73,-0.22 -1.41,-0.55 -2.02,-0.99 c -0.61,-1.21 -0.44,-2.28 0.51,-3.22 c 3.07,-2.27 5.96,-4.77 8.65,-7.49 c 20.81,-11.05 45.18,-20.56 67.76,-27.16 Z M 737.11,325.01 c 0.52,-1.49 2.61,-3.38 2.9,-0.52 c 0.65,4.83 -2.31,4.01 -2.9,0.52 Z M 372.03,455.19 c 0.93,0.33 4.43,0.51 3.87,2.1 c -1.07,1.1 -3.54,0.06 -4.6,-0.52 c 0.15,-0.57 0.39,-1.1 0.73,-1.58 Z M 332.18,502.87 c -0.15,0.64 -0.21,1.28 -0.19,1.93 c -5.34,-0.96 -18.11,0.79 -21.94,-2.14 c 0.45,-0.45 0.9,-0.9 1.35,-1.35 c 1.97,0.92 4,1.11 6.11,0.58 c 3.07,-0.9 6.08,-1.97 9.01,-3.21 c 1.98,1.26 3.86,2.66 5.66,4.19 Z"/></g>
<g><path fill="#e4e2e3" d="M 376.2,187.18 c -0.38,0.54 -0.79,1.05 -1.23,1.54 c -1.41,1.93 -6.92,4.65 -8.76,2.72 c 2.12,-1.06 4.18,-2.25 6.18,-3.57 c 1.2,-0.66 2.47,-0.89 3.81,-0.69 Z M 674.18,825.12 c 0.28,0.03 0.56,0.05 0.83,0.08 c -0.59,0.54 -1.21,1.03 -1.87,1.48 c -5.3,2.75 -10.66,5.37 -16.08,7.88 c -1.58,0.59 -3.15,1.18 -4.73,1.78 c -0.94,-0.93 -2.05,-1.6 -3.35,-1.99 c 8.42,-3.05 16.82,-6.12 25.2,-9.23 Z"/></g>
<g><path fill="#5f595f" d="M 474.93,154.77 c -0.93,0.01 -0.8,-1.44 -0.9,-2.04 c -0.12,-1.11 3.66,-1.03 4.47,-1.7 c 3.96,-0.46 7.91,-0.95 11.86,-1.47 c 1.75,-0.44 3.48,-0.89 5.21,-1.36 c 2.69,-0.31 2.87,0.15 0.54,1.39 c -1.57,0.37 -3.11,0.82 -4.63,1.37 c -1.59,0.25 -3.2,0.37 -4.82,0.36 c -3.65,0.73 -7.31,1.36 -10.99,1.88 c -0.51,0.39 -0.76,0.92 -0.74,1.57 Z"/></g>
<g><path fill="#615d64" d="M 442.28,212.25 c -1.17,0.07 -2.27,0.33 -3.32,0.79 c -0.42,-0.81 -2.95,-3.04 -1.52,-3.76 c 1.58,1.03 3.2,2.02 4.84,2.97 Z M 344.1,307.18 c 2.33,-0.17 11.28,-4.35 12.9,-2.72 c -0.47,1.79 -11.4,4.3 -12.9,2.72 Z"/></g>
<g><path fill="#7d7379" d="M 820.93,622 c 0.59,-2.92 1.13,-7.02 3.06,-9.37 c 2.65,-1.04 -2.52,9.88 -2.48,11.22 c -0.5,-0.51 -0.69,-1.12 -0.58,-1.85 Z"/></g>
<g><path fill="#5e5a5f" d="M 501.84,568.88 c 0.03,0.6 0.32,1.02 0.86,1.27 c -0.58,1.11 -1.38,2.03 -2.41,2.75 c -0.22,-0.7 -0.7,-1.12 -1.43,-1.27 c 1.2,-0.69 2.19,-1.61 2.98,-2.75 Z M 430.53,774 c 0.72,-2.09 5.95,0.58 4.18,2.18 c -1.97,0.39 -3.36,-0.34 -4.18,-2.18 Z"/></g>
<g><path fill="#a09da3" d="M 396.88,764.95 c 0.2,-0.65 0.58,-0.81 1.13,-0.46 c 0.84,1.38 1.6,6.38 0.38,7.35 c -1.99,-0.25 -1.2,-5.43 -1.51,-6.89 Z"/></g>
<g><path fill="#636065" d="M 389.36,188.01 c 0.14,-0.06 0.27,-0.12 0.4,-0.18 c 0.9,2.2 -2.28,2.7 -3.54,3.8 c -0.73,0.3 -1.4,0.25 -2.04,-0.14 c 1.26,-1.82 2.99,-2.98 5.18,-3.48 Z"/></g>
<g><path fill="#939094" d="M 355.74,493.72 c 1.26,-2.29 2.24,1.94 2.29,2.8 c -0.21,1.09 -0.75,1.31 -1.62,0.68 c -0.22,-1.16 -0.44,-2.32 -0.67,-3.48 Z"/></g>
<g><path fill="#857e85" d="M 781.08,457.1 c 1.43,0 3.85,-2.59 4.78,-0.62 c -0.58,0.84 -4.21,2.25 -4.78,0.62 Z"/></g>
<g><path fill="#79777c" d="M 380.86,176.18 c -0.07,0.23 -0.13,0.46 -0.2,0.69 c -0.6,0.49 -1.29,2.35 -2.27,1.91 c -0.09,-0.32 -0.19,-0.63 -0.28,-0.95 c 0.54,-1.13 1.45,-1.68 2.75,-1.65 Z"/></g>
<g><path fill="#aca7af" d="M 393.04,175.01 c 0.45,-0.86 2.23,-1.93 2.81,-0.66 c -0.2,1.25 -2.53,2.27 -2.81,0.66 Z"/></g>
<g><path fill="#c3bebf" d="M 820.09,377.71 c 1.02,0.06 1.74,0.55 2.17,1.46 c 0.08,1.06 -0.35,1.44 -1.3,1.14 c -0.74,-0.7 -1.03,-1.57 -0.87,-2.6 Z"/></g>
<g><path fill="#88848f" d="M 416.1,173.91 c 0.2,-1.47 1.03,-2.16 2.48,-2.07 c 1.1,1.17 -1.67,2.11 -2.48,2.07 Z"/></g>
<g><path fill="#908b95" d="M 751,257.69 c 1.1,0.11 1.75,0.7 1.95,1.77 c -0.96,1.28 -2.03,-0.91 -1.95,-1.77 Z"/></g>
<g><path fill="#ada7af" d="M 828.88,343.92 c -0.99,-0.05 -1.59,-0.56 -1.82,-1.51 c 0.79,-0.91 1.79,0.76 1.82,1.51 Z"/></g>
<g><path fill="#5b5b5e" d="M 349.98,341 c 0.01,-0.38 0.18,-0.63 0.53,-0.75 c 0.55,0.54 0.57,1.08 0.06,1.63 c -0.38,-0.17 -0.57,-0.47 -0.59,-0.88 Z"/></g>
<g><path fill="#a9a1a4" d="M 219.14,303.98 c -0.32,0.08 -0.64,0.16 -0.95,0.24 c -0.09,-0.46 0.07,-0.83 0.47,-1.09 c 1.07,-0.11 1.23,0.18 0.48,0.85 Z"/></g>
<g><path fill="#7c7880" d="M 447.13,155.89 c 0.34,-0.9 0.88,-1.03 1.61,-0.38 c -0.44,0.46 -0.98,0.59 -1.61,0.38 Z"/></g>
<g><path fill="#6e646e" d="M 215.98,310.93 c 0.03,0.37 -0.11,0.64 -0.42,0.83 c -0.23,-0.42 -0.09,-0.69 0.42,-0.83 Z"/></g>
<g><path fill="#6c6368" d="M 617.18,161.94 c 0.25,0.03 0.51,0.05 0.76,0.07 c -0.04,0.32 -0.07,0.63 -0.11,0.95 c -0.43,-0.2 -0.65,-0.53 -0.65,-1.02 Z"/></g>
<g><path fill="#706a70" d="M 227.93,292.16 c -0.07,0.42 -0.31,0.66 -0.73,0.71 c 0.12,-0.36 0.36,-0.6 0.73,-0.71 Z"/></g>
<g><path fill="#0c0c0a" stroke="#0c0c0a" stroke-width="0.5" d="M 474.03,152.73 c 0.1,0.6 -0.03,2.05 0.9,2.04 c 1.9,1.08 -2.84,1.95 -0.09,4.82 c 5.49,0.17 10.98,0.45 16.46,0.83 c 4.06,0.21 4.97,2.82 7.33,5.45 c 4.48,5.14 -8.35,7.71 -1.58,10.48 c -0.21,0.45 -0.18,0.88 0.08,1.3 c -1.1,0.6 -5.69,3.77 -4.43,5.15 c 2.41,1.03 4.9,1.28 7.45,0.77 c 2.58,-1.11 -1.68,-3.91 1.12,-3.3 c 1.61,0.66 3.29,1.01 5.04,1.04 c 0.45,0.18 0.58,0.48 0.39,0.92 c -1.26,1.25 -3.06,4.52 -5.08,4.54 c -2.67,-1.29 -5.08,-0.91 -7.24,1.15 c -3.74,3.87 -6.37,7.87 -2.46,12.68 c -0.13,5.88 3.93,9.96 5.61,15.4 c 1.3,4.65 11.46,1.24 15.52,7.29 c 7.36,3.52 9.63,-5.44 11.12,-10.62 c 0.24,-0.48 0.61,-0.82 1.11,-1.02 c 2.79,-1.23 6.21,-2.78 6.33,-6.27 c 1.64,-1.07 1.19,-1.74 2.14,-3.18 c 2.07,-0.86 4.15,-1.72 6.22,-2.59 c 9.72,0.44 13.62,-2.86 20.63,-8.43 c 5.59,-0.3 11.17,-0.79 16.73,-1.47 c 2.29,-1.13 4.65,-2.06 7.09,-2.79 c 1.17,-0.9 -0.25,-2.1 -1.11,-2.47 c 1.36,-0.1 2.71,-0.03 4.06,0.2 c 1.7,-0.79 2.01,-1.98 0.94,-3.57 c -1.62,-1.36 -3.29,-2.66 -5.01,-3.89 c -3.25,-3.8 1.6,-2.95 3.84,-3.67 c 3.29,-1.69 -3.53,-4.9 -2.57,-6.36 c 2.78,0.16 5.88,-1.55 3.9,-4.65 c 1.74,-1.66 1.72,-0.95 1.77,-3.79 c 1.2,-1.41 4.94,-0.97 6.64,-0.99 c 2.5,0.75 19.33,2.97 20.3,4.21 c 0,0.49 0.22,0.82 0.65,1.02 c 0.66,1.01 1.59,1.64 2.79,1.87 c 2.02,0.18 4,0.55 5.94,1.11 c 0.66,-0.14 1.81,0.55 2.11,-0.42 c -1.18,-0.83 -2.47,-1.49 -3.87,-1.97 c 0,-0.99 -0.21,-1.94 -0.62,-2.85 c 0.41,-0.24 0.85,-0.25 1.34,-0.04 c 1,-1.34 3.02,-3.07 4.83,-2.78 c 1.83,2.3 1.88,1.73 4.16,1.1 c 0.93,0.2 1.84,0.4 2.74,0.59 c 0.36,-0.29 0.68,-0.63 0.94,-1.02 c 40.46,14.45 77.89,34.82 111.09,62.18 c -0.84,0.49 -1.59,1.1 -2.26,1.81 c -0.66,-0.13 -1.32,-0.14 -1.98,-0.04 c -1.41,1.33 0.84,2.49 -1.77,3.37 c -2.62,0.98 1.9,-3.67 -1.6,-3.71 c -2.1,1.57 -0.47,2.94 -0.69,4.94 c -0.66,-0.26 -2.25,-0.07 -1.5,0.98 c 1.04,1.14 2.07,2.29 3.09,3.43 c -0.53,0.23 -1.07,0.21 -1.61,-0.05 c -19.1,-14.12 -36.5,-29.67 -59.5,-37.31 c -0.85,0.17 -1.7,0.36 -2.53,0.56 c -2.22,-1.07 -5.7,-4.28 -8.28,-3.54 c -2.35,1.84 4.28,7 6.75,6.5 c 1.04,-0.41 2.01,-0.92 2.91,-1.52 c 1.27,0.72 1.86,1.84 1.75,3.35 c -0.28,1.59 -0.53,3.17 -0.77,4.74 c 0.57,0.72 1.24,1.34 2.01,1.85 c 1.25,4.99 11.41,13.93 4.71,18.29 c -1.82,1.26 -7.94,2.28 -5.32,5.58 c 3.98,4.14 7.86,11.45 11.72,15.08 c 2.76,1.79 5.75,2.39 8.96,1.79 c 4.53,-1.96 4.11,-2.63 8.02,0.77 c -0.16,0.79 -0.3,1.6 -0.41,2.4 c -2.7,0.58 -7.74,1.48 -2.99,4.46 c 1.28,3.76 4.64,6.51 5.82,10.08 c 0.38,1.3 -0.06,2.11 -1.32,2.42 c -1.92,-0.12 -3.75,0.21 -5.49,1 c -0.16,-1.6 -1.07,-2.52 -2.72,-2.75 c -1.38,-0.34 -2.47,0.11 -3.26,1.33 c -1.6,0.53 -4.4,0.47 -2.56,3.16 c 0.37,-0.56 0.79,-1.06 1.27,-1.51 c 2.37,-0.24 0.19,2.93 -0.23,3.75 c -0.68,1.03 -1.48,1.17 -2.39,0.43 c -0.12,-0.81 -0.31,-1.61 -0.55,-2.39 c -0.99,-0.74 -1.75,-1.66 -2.26,-2.77 c -0.61,-0.07 -1.04,0.19 -1.3,0.76 c -1.79,-2.11 -3.87,-2.13 -5.99,-3.59 c -5.01,-5.19 -10.35,-10.38 -15.6,-15.27 c -1.16,-2.32 3.12,-4.74 -2.05,-6.79 c -1.08,-0.63 -3.41,0.16 -4.02,-1 c 0.18,-1.31 0.98,-2.83 -0.68,-3.58 c -4.55,-1.97 -7.22,1.37 -10.13,4.29 c 0.49,2.04 1.16,4.05 2.01,6.01 c 1.08,0.96 2.08,1.98 3.01,3.05 c 0.5,0.14 0.97,0.08 1.42,-0.19 c 0.16,0.78 0.04,1.51 -0.35,2.2 c -3.1,-2.01 -6.32,-2.17 -9.65,-0.48 c -0.48,0.84 -0.93,1.69 -1.34,2.57 c -1.6,0.36 -3.22,0.42 -4.86,0.2 c -2.15,1.65 3.74,4.21 2.95,6.82 c -2.29,1.85 -3.9,3.92 -0.71,6.1 c 3.56,3.33 12.02,0.08 15.48,-1.59 c 0.32,0.86 0.51,1.75 0.59,2.67 c 1.47,1.61 2.27,-0.78 2.51,-1.94 c 0.53,0.1 0.86,0.4 1,0.91 c -0.7,1.58 -0.4,2.97 0.89,4.19 c 0.35,-1.06 0.96,-1.94 1.83,-2.63 c 1.28,0.76 2.48,1.6 3.59,2.53 c -0.73,1.2 -1.25,2.49 -1.58,3.85 c 0.59,1.07 1.88,0.77 2.89,1.15 c -0.7,0.26 -1.3,0.65 -1.83,1.17 c 0.05,1.55 0.21,3.1 0.49,4.65 c -0.17,0.72 -1.29,1.75 -0.44,2.37 c 0.86,-0.61 1.78,-1.1 2.76,-1.45 c -0.24,0.63 -0.25,1.27 -0.03,1.91 c 4.59,5.02 10.68,3.94 14.97,10.72 c -1.33,0 -1.77,0.6 -1.31,1.8 c -1.79,3.33 0.45,3.61 1.81,6.42 c 0.46,0.6 0.36,2.06 -0.63,1.43 c -1.67,-2.14 -0.77,-2.73 -3.65,-0.98 c 1.05,0.78 3.61,1.72 2.06,3.37 c -1.33,-0.58 -2.71,-1.71 -4.06,-0.38 c 0.84,0.34 1.66,0.73 2.46,1.16 c 0.19,0.78 0.25,1.56 0.18,2.36 c -4.99,-2.36 -9.02,-2.45 -14.42,-2.56 c -2.33,-0.59 -4.68,-1.09 -7.04,-1.47 c -2,-0.21 -3.2,0.65 -3.59,2.57 c 1.15,3.94 2.08,7.94 2.78,11.99 c -0.07,3.33 -0.32,6.65 -0.75,9.95 c 1.05,3.29 2.13,6.58 3.24,9.85 c 1.15,2.5 6.7,0.44 9.16,1.91 c 1.97,1.63 3.94,3.27 5.9,4.92 c -0.58,0.84 -1.19,1.66 -1.81,2.47 c -1.87,-0.49 -3.35,-1.54 -4.45,-3.15 c -0.69,-0.22 -0.98,0.05 -0.87,0.8 c 1.62,3.14 5.14,3.4 8.01,4.77 c -1,3.06 -2.9,5.38 -5.7,6.95 c -8.73,3.03 -9.4,11.35 -9.56,19.49 c -1.08,3.67 -6.95,8.7 -10.55,10.13 c -5.58,0.61 -7.45,1.93 -8.73,7.42 c -1.2,1.75 -2.34,3.54 -3.41,5.35 c 1.01,2.62 2,4.05 1.96,7.11 c -0.07,21.99 -0.04,43.98 0.1,65.97 c 0.1,0.69 0.38,1.3 0.84,1.82 c 5.79,3.49 5.43,4.13 8.05,10.13 c 4.95,1.79 17.98,14.97 22.34,13.54 c 6.62,-3.19 10.22,-4.47 15.21,1.9 c 4.9,3.41 17.34,-4.58 23.81,-3.87 c 4.68,-0.22 6.91,4.67 9.99,4.93 c 25.67,0.12 51.34,0.15 77.02,0.08 c 2.48,0.15 2.47,-1.54 2.42,-3.49 c 0.01,-30.34 -0.03,-60.67 -0.1,-91.01 c -0.14,-3.83 1.58,-6.51 5.14,-8.04 c 6.66,-1.12 32.9,-0.42 41.51,-0.59 c 1.55,-0.01 2.02,-0.75 1.39,-2.21 c -3.18,-10.93 -8.21,-21.09 -12.26,-31.7 c -0.8,-2.67 -13.89,-23.63 -13.74,-24.04 c 0.7,0.24 1.39,0.38 2.07,0.43 c -2.09,-4.07 -4.34,-8.08 -6.73,-12.01 c -1.68,-4.15 -3.63,-8.16 -5.85,-12.03 c -1.05,-2.27 1.9,-2.11 1.09,-3.37 c -1.85,-4.77 -6.66,-7.77 -6.79,-13 c -4.78,-7.33 -10.24,-14 -15.71,-20.87 c 1.04,-0.5 0.21,-2.15 0.17,-2.97 c -0.55,-0.67 -1.15,-1.29 -1.8,-1.86 c -0.18,-0.68 -0.13,-1.33 0.16,-1.95 c 0.79,0.77 1.62,1.48 2.51,2.16 c 0.78,0.08 1.56,-0.01 2.33,-0.25 c 0.78,0.43 1.51,0.94 2.18,1.53 c 0.5,-0.33 1.04,-0.43 1.6,-0.33 c 1.48,1.18 2.91,2.43 4.27,3.75 c 1.13,1.18 2.12,2.49 2.96,3.92 c 0.72,0.65 1.33,0.57 1.83,-0.26 c 34.65,48.1 55.71,96.68 66.43,155.15 c 20.3,121.83 -20.36,242.5 -110.08,327.06 c -28.17,27.35 -58.32,46.14 -92.78,64.34 c -3.46,1.81 -6.98,3.46 -10.59,4.95 c -0.95,-0.24 -1.5,-0.83 -1.66,-1.77 c -0.35,0.82 -0.97,1.22 -1.86,1.19 c -1.55,-0.95 -3.21,-1.66 -4.98,-2.13 c -0.37,-0.24 -0.57,-0.59 -0.59,-1.04 c 5.42,-2.51 10.78,-5.13 16.08,-7.88 c 0.66,-0.45 1.28,-0.94 1.87,-1.48 c 1.89,-0.23 8.57,-2.96 9.15,-4.78 c -0.16,-1.48 -0.87,-1.77 -2.14,-0.85 c -2.35,1.72 -4.83,3.26 -7.42,4.6 c -0.35,0.23 -0.49,0.55 -0.42,0.95 c -8.38,3.11 -16.78,6.18 -25.2,9.23 c -17.99,6.5 -42.65,11.07 -61.96,11.21 c -5.56,1.47 -20.04,3.01 -24.24,4.92 c -11.85,10.76 -29.03,5.03 -43.27,6.79 c -17.7,-2.56 -31.55,0.09 -44.98,-14.67 c 0.6,-0.92 1.42,-1.65 2.46,-2.18 c 3.22,-1.4 6.44,-2.8 9.65,-4.19 c 0.23,-1.04 -1.74,-2.1 -2.51,-2.58 c -4.97,0.2 -8.74,3.77 -12.68,6.23 c -6.24,-0.12 -11.13,0.09 -17.1,1.94 c -2.74,0.68 1.04,3.07 -2.29,4.64 c -13.76,4.87 -25.42,3.61 -39.19,0.23 c 0.01,-0.09 0.02,-0.19 0.03,-0.29 c -4.97,-1.14 -9.96,-2.28 -14.96,-3.42 c -0.77,-1.66 -6.53,-2.79 -8.26,-3.09 c -1.43,-2.49 -2.19,-1.6 -4.44,-2.72 c -1.37,-0.28 -1.62,2.07 -0.82,2.89 c 1.16,0.41 2.29,0.85 3.38,1.34 c -0.7,1.31 -2.47,0.3 -3.58,0.99 c 0.27,0.41 0.64,0.71 1.11,0.89 c 1.6,0.04 1.68,0.36 0.22,0.95 c -1.24,0.31 -3.13,-0.73 -3.67,1 c -101.57,-38.83 -179.23,-119.6 -215.38,-222 c 0.67,-0.42 1.04,-1.02 1.13,-1.8 c -1.08,-2.62 -1.96,-5.29 -2.65,-8.01 c 0,-1.63 0.28,-3.21 0.84,-4.72 c -1.3,-2.44 -0.52,-3.84 -3.21,-5.44 c -0.56,0.66 -1.17,1.26 -1.83,1.82 c -8.72,-29.24 -13.17,-58.65 -14.51,-89.11 c 0.85,1.18 1.6,2.42 2.24,3.72 c -0.43,-3.34 -0.57,-6.74 -0.44,-10.22 c 0.39,-2.79 1.34,-4.81 0.9,-7.96 c -0.54,-1.27 -0.87,-2.6 -0.98,-3.97 c 1.89,-3.89 0.65,-8.84 1.03,-13.05 c 0.88,-3.3 1.23,-6.65 1.04,-10.06 c -0.78,-2.16 -1.19,-4.4 -1.22,-6.71 c -0.16,-0.33 -0.4,-0.58 -0.73,-0.74 c 5.84,-58.04 25.31,-112.14 56.77,-161.15 c 0.51,-0.01 0.99,0.09 1.44,0.31 c 0.55,1 1.27,1.84 2.15,2.52 c 0.97,-1.28 1.84,-2.63 2.6,-4.04 c 0.44,-0.2 0.89,-0.2 1.35,0 c 0.49,-0.52 1.5,-2.46 2.23,-0.93 c 0.3,2.51 -0.15,2.49 -2.23,3.3 c -0.55,1.78 -0.07,2.11 1.45,0.98 c 0.26,0.54 0.32,1.13 0.19,1.77 c -0.61,2.51 -1.49,4.92 -2.67,7.23 c 0.42,9.5 -8.09,17.08 -11.28,25.66 c -1.63,8.47 -4.23,16.85 -4.63,25.53 c 0.88,0.74 1.79,1.47 2.73,2.2 c 0.89,2.28 1.33,4.66 1.29,7.14 c -0.82,8.45 -1.06,15.42 0.9,23.69 c 0.92,0.84 1.51,0.63 1.79,-0.64 c -0.13,-2.17 -1.66,-20.9 4.52,-13.74 c 4.12,4.69 -1.22,9.85 0.97,14.1 c 2.54,0.78 5.15,1.04 7.83,0.78 c 5.2,0.58 7.67,3.51 7.41,8.8 c -0.12,7 -0.21,14 -0.29,21.01 c 0.85,6.54 1.45,10.24 -0.08,16.79 c -0.4,6.01 9.87,9.09 13.09,13.48 c 9.21,4.58 12.23,13.03 23.33,6.8 c 4.83,-1.34 12.09,7.54 16.03,9.94 c 5.28,5.64 16.34,3.25 19.37,8.46 c 4.76,9.98 5.38,11.96 15.68,15.69 c 3.83,2.93 16.6,1.18 21.94,2.14 c 15.36,0.08 34.29,1.7 49.22,-0.13 c 0.38,-0.31 0.58,-0.72 0.59,-1.22 c 0.04,-3.32 0.13,-6.65 0.26,-9.97 c 0.16,-0.92 -0.07,-1.7 -0.7,-2.35 c -3.25,-0.11 -6.5,-0.22 -9.74,-0.33 c -1.21,-1.02 -9.24,-5.73 -10.3,-5.44 c -0.82,0.56 -1.72,0.73 -2.69,0.49 c 0.3,-1.12 -0.07,-1.84 -1.12,-2.17 c -0.63,0.52 -1.26,1.04 -1.89,1.57 c -9.08,4.53 -13.74,3.2 -16.19,14.47 c -1.36,3.52 -3.78,4.57 -7.25,3.15 c -1.8,-1.53 -3.68,-2.93 -5.66,-4.19 c -2.93,1.24 -5.94,2.31 -9.01,3.21 c -2.11,0.53 -4.14,0.34 -6.11,-0.58 c -6.31,-8.67 -3.76,-16.01 -1.98,-25.65 c 0.35,-9.85 -14.29,-4.94 -19.92,-5.57 c -4.17,0.02 -3.42,-0.88 -1.71,-3.7 c 0.12,-1.93 0.24,-3.87 0.37,-5.8 c 3.22,-5.18 3.19,-13.41 5.73,-19.21 c 0.58,-2.15 -0.21,-3.27 -2.37,-3.34 c -11.79,1.58 -11.7,4.92 -14.85,15.02 c -1.26,3.79 -3.92,3.25 -7.17,2.47 c -14.78,5.91 -15.68,-7.94 -19.11,-18.5 c -1.4,-8.81 1.01,-13.44 4.19,-21.01 c 0.1,-6.14 -1.24,-10.11 4.02,-14.86 c 6.11,-3.69 6.67,-8.87 14.9,-8.39 c 3.6,0.42 7.2,0.75 10.79,0.97 c 1.22,-1.23 -0.41,-3.39 1.47,-4.46 c 7.16,-1.44 11.51,-4.63 17.95,0.27 c 1.59,-0.16 3.18,-0.36 4.79,-0.62 c 6.68,1.84 4.46,13.21 5.78,18.33 c 0.64,0.65 1.33,1.25 2.07,1.79 c 1.4,2.04 2.62,4.19 3.66,6.44 c 0.65,0.71 1.38,0.81 2.19,0.29 c 13.47,-12.06 -13.98,-29.92 7.7,-43.46 c 2.61,-5.52 15.84,-13.19 21.25,-17.65 c 1.15,-1.06 -0.24,-1.74 0.04,-3 c 1.53,-2.12 -0.71,-5.5 0.04,-8.11 c 0.94,-0.97 1.88,-1.99 2.81,-3.03 c 2.28,-3.26 4.17,-6.91 7.17,-9.62 c 1.08,-1.5 1.87,-3.13 2.38,-4.88 c 6.59,-2.3 12.38,-4.84 18.54,-8.38 c 1.75,-1.38 -1.1,-7.49 6.23,-11.81 c 6.47,-3.22 13.46,-5.34 19.59,-9.22 c 1.6,-0.39 3.15,-0.8 4.64,-1.21 c -1.09,1.16 -2.32,2.17 -3.69,3.04 c -2.38,2.29 -2.48,4.67 -0.3,7.14 c 2.03,-1.41 4.06,-2.84 6.08,-4.3 c 4.9,-2.58 12.99,-3.36 17,-6.93 c 2.15,-0.61 4.16,-1.52 6.01,-2.74 c -0.96,-0.62 -1.81,-1.35 -2.53,-2.2 c -0.05,-0.92 0.24,-1.72 0.88,-2.4 c 1.8,0.24 3.34,-0.28 4.61,-1.57 c -1.39,-1.77 -3.29,1.37 -4.4,0.23 c 0.34,-0.6 0.73,-1.17 1.18,-1.71 c -0.14,-0.89 0.03,-1.7 0.52,-2.45 c 0.56,-0.47 1.12,-0.51 1.68,-0.1 c -0.32,0.63 -0.49,1.29 -0.52,1.98 c 2.35,1.56 4.07,0.58 5.32,-1.66 c 0.25,0.33 0.59,0.5 1.02,0.51 c 3.69,-0.05 10.45,-0.25 13.88,0.84 c -0.05,0.63 0.07,1.22 0.34,1.78 c 1.16,0.4 2.29,0.31 3.39,-0.26 c 1.04,-0.6 1.94,-1.37 2.68,-2.32 c 0.21,-0.02 0.42,-0.03 0.63,-0.05 c 0.06,0.9 0.17,1.82 0.35,2.75 c 1.07,1.05 2.34,1.75 3.79,2.08 c 3.47,-0.12 3.16,-6.15 3.42,-8.51 c -0.16,-0.19 -0.31,-0.38 -0.46,-0.58 c -0.78,-0.05 -1.5,-0.23 -2.16,-0.55 c 0.24,-0.99 1.41,-1.35 1.03,-2.48 c -0.61,-0.54 -1.24,-1.05 -1.9,-1.53 c 2.38,-3.98 -4.05,-2.39 -5.83,-2.53 c -0.91,-0.38 -1.78,-0.85 -2.6,-1.42 c -1.18,-0.51 -4.04,1.17 -4.63,-0.07 c 0.42,-1.65 4.85,-4.79 6.07,-6.35 c 0.81,-1 -0.71,-1.38 -1.42,-1.14 c -0.08,-0.81 -0.14,-1.61 -0.2,-2.41 c 1.04,-0.35 1.7,-1.04 1.97,-2.07 c 0.08,-1.92 0.09,-3.82 0.02,-5.71 c -1.32,-1.42 -2.79,-2.64 -4.41,-3.67 c -0.37,-0.91 -0.79,-1.78 -1.26,-2.62 c -6.93,-0.75 -9.44,-1.9 -14.4,-6.59 c -1.3,-1.32 0.3,-1.71 1.04,-2.54 c 0,-1.15 -0.27,-2.24 -0.82,-3.26 c 0.83,-0.35 1.45,-0.92 1.88,-1.7 c 0.43,-1.77 1.1,-3.45 2.01,-5.04 c 0.2,-0.7 0.11,-1.35 -0.28,-1.94 c -0.53,1.02 -1.08,2.04 -1.64,3.06 c -1.43,2.04 -5.21,-4.22 -5.24,-5.58 c -0.54,-0.37 -1.07,-0.75 -1.57,-1.13 c 1.45,-2 0.6,-3.81 1.59,-5.8 c 0.68,0.04 1.26,0.32 1.76,0.84 c 1.5,-0.53 2.87,-1.3 4.11,-2.31 c -0.49,-0.41 -1.06,-0.68 -1.7,-0.81 c 3.91,-6.18 6.4,-6.77 -0.6,-12.42 c -0.18,-2.17 0.84,-3.12 3.05,-2.86 c 1.92,1.37 3.78,2.82 5.59,4.37 c 0.49,0.23 1.01,0.33 1.56,0.29 c 3.8,-1.73 7.46,-3.74 10.98,-6.03 c 0.45,-0.37 0.56,-0.81 0.35,-1.35 c -2.16,-1.42 -4.32,-2.88 -6.45,-4.38 c -2.16,-0.49 -4.29,-1.04 -6.41,-1.66 c -1.37,-0.52 -1.98,-1.47 -1.82,-2.87 c 1.1,-0.67 2.29,-1.14 3.57,-1.41 c 1.53,-0.24 2.52,-3.73 1.25,-4.52 c -1.34,-0.5 -2.7,-0.89 -4.09,-1.2 c -1.61,-2.72 -4.27,-2.41 -7.01,-3.04 c -4.14,-2.98 -5.46,-8.2 -11.82,-6.48 c -0.04,-0.65 -0.08,-1.31 -0.11,-1.97 c 3.9,-0.13 7.81,-1.97 11.61,-2.81 c 4.03,-0.29 12.99,-0.51 16.54,-1.82 c 3.97,-2.62 -5.48,-3.68 -6.51,-3.62 c -0.68,-0.25 -1.12,-0.73 -1.3,-1.44 c 4.64,-1.2 9.38,-2.07 14.2,-2.61 c 2.13,-0.91 4.31,-1.6 6.56,-2.07 Z M 602.18,195.59 c -1.81,1.43 -1.65,1.1 -1.11,3.06 c -1.06,0.94 -2.55,0.79 -2.23,2.77 c -6.43,-0.29 -9.21,-4.06 -15.67,0.32 c -0.39,1.25 0.06,1.96 1.36,2.14 c 1.78,0.2 3.53,0.46 5.27,0.76 c -1.43,-0.11 -2.82,0.06 -4.19,0.5 c -1.31,0.75 -0.34,1.93 0.88,1.9 c 3.81,0.14 3.13,-0.09 3.63,3.29 c 1.11,1.95 8.17,1.47 10.39,2.57 c 5.45,0.85 14.9,-0.44 19.57,-3.29 c 1.88,-2.03 -2.97,-4.8 -4.32,-5.59 c 1.62,-0.29 1.96,-1.78 2.92,-2.83 c 0.65,-0.29 4.17,-2.62 1.86,-3.11 c -0.05,-6.49 -18.03,-12.53 -19.98,-8.4 c -0.51,2.27 0.03,4.24 1.62,5.91 Z M 651.71,237.78 c -0.68,0.68 -1.15,4.22 0.18,3.97 c 1.88,0.06 1.15,-2.73 1.1,-3.88 c -0.35,-0.72 -0.78,-0.75 -1.28,-0.09 Z M 824.22,324.29 c 0.46,3.19 0.24,4.79 2.18,7.89 c 2.19,0.99 2.43,3.14 2.91,5.19 c 1.13,1.04 1.66,0.76 1.6,-0.83 c -1.11,-4.55 -5.01,-6.99 -6.01,-11.88 c -0.15,-0.28 -0.38,-0.4 -0.68,-0.37 Z M 177.02,435 c 0.07,37.17 0.07,74.34 0.02,111.5 c 0.2,1.08 -0.4,2.49 0.69,3.19 c 82.88,0.16 165.75,0.2 248.62,0.12 c 0.75,-0.56 1.08,-1.32 0.99,-2.28 c -0.33,-9.56 -0.29,-19.12 0.11,-28.66 c 0.71,-1.33 5.68,-0.58 7.05,-0.81 c 55.27,-0.11 110.54,-0.05 165.81,0.18 c 0.63,0.59 0.9,1.34 0.8,2.24 c -0.06,9 0,18 0.17,26.99 c 0.31,1.76 1.38,2.49 3.22,2.2 c 80.34,0.16 160.67,0.24 241,0.26 c 2.26,-0.01 4.51,-0.09 6.76,-0.26 c 0.53,-0.21 0.86,-0.59 0.99,-1.15 c -0.01,-29.32 0.11,-58.64 0.33,-87.97 c -0.07,-1.24 0.2,-3.77 -1.26,-4.31 c -10.94,-0.12 -21.89,-0.17 -32.83,-0.15 c -0.8,-0.05 -1.43,0.24 -1.88,0.88 c -1.4,18.31 -0.27,38.06 -0.29,56.56 c 0.03,0.92 -0.32,1.64 -1.06,2.16 c -55.25,0.09 -110.5,0.15 -165.76,0.17 c -3.98,0 -7.96,-0.04 -11.95,-0.12 c -1.24,-0.06 -1.91,-0.73 -2,-2 c -0.31,-33.09 -0.37,-66.18 -0.19,-99.27 c 0.03,-0.93 -0.33,-1.66 -1.08,-2.17 c -79.93,-0.13 -159.85,-0.2 -239.78,-0.22 c -1.19,0.08 -3.25,-0.27 -3.3,1.5 c -0.07,33.31 -0.08,66.63 -0.04,99.94 c 0.15,1.34 -0.42,2.09 -1.71,2.23 c -56.31,0.08 -112.63,0.1 -168.95,0.09 c -2.86,0.12 -5.7,-0.03 -8.51,-0.45 c -1.14,-0.64 -0.84,-2.81 -0.92,-3.89 c 0,-32.66 -0.04,-65.32 -0.12,-97.97 c -0.36,-1.54 -3.34,-1.06 -4.45,-1.25 c -9.92,-0.11 -19.84,-0.1 -29.75,0.04 c -0.58,0.59 -0.82,1.31 -0.72,2.16 c 0.02,6.84 0.02,13.68 -0.01,20.52 Z M 817.13,427 c -0.03,5.82 0.03,11.63 0.17,17.44 c -0.05,0.52 0.1,0.97 0.45,1.35 c 2.55,0.45 5.13,0.67 7.75,0.64 c 8.87,0.12 17.73,0.13 26.6,0.03 c 0.49,-0.14 0.82,-0.46 0.99,-0.94 c 0.29,-10.2 0.41,-20.4 0.38,-30.61 c 0.07,-0.85 -0.2,-1.56 -0.81,-2.12 c -5.61,-0.97 -13.3,-0.29 -19.16,-0.53 c -5.17,-0.13 -10.32,0.02 -15.46,0.45 c -0.59,0.44 -0.86,1.04 -0.82,1.8 c -0.03,4.16 -0.06,8.33 -0.09,12.49 Z M 332.19,418.07 c -0.07,2.81 3.77,2.05 2.98,-0.05 c -0.61,-1.2 -2.66,-1.36 -2.98,0.05 Z M 335.01,425.01 c 0.17,0.95 0.71,1.58 1.63,1.9 c 1.54,-0.04 1.76,-0.62 0.67,-1.75 c -0.76,-0.57 -1.53,-0.62 -2.3,-0.15 Z M 305.65,435.6 c 1.1,1.75 2.02,1.66 2.77,-0.29 c 0.51,0.25 1.02,0.31 1.55,0.18 c 0.61,-0.86 1.41,-1.37 2.41,-1.53 c 2.6,2.22 2.6,2.11 6.16,1.9 c 1.76,0.12 1.85,2.83 2.99,3.83 c 1.17,-0.96 2.98,-1.77 3.65,-3.21 c 4.53,1.66 6.27,8.28 11.3,7.66 c 1.93,-0.2 3.86,-0.35 5.8,-0.46 c 0.54,-0.5 0.6,-1.07 0.16,-1.7 c -10.29,-7.6 -20.8,-18.42 -34.46,-11.58 c -1.97,1.07 -3.23,2.69 -3.79,4.86 c 0.45,0.23 0.94,0.34 1.46,0.34 Z M 371.3,456.77 c 1.06,0.58 3.53,1.62 4.6,0.52 c 0.56,-1.59 -2.94,-1.77 -3.87,-2.1 c -6,-3.34 -7.57,-8.22 -15.39,-7.4 c -2.98,-1.27 -6.2,-2.64 -9.24,-3.68 c -1.92,0.04 -2.82,2.81 -0.81,3.64 c 4.65,-0.21 4.97,2.23 6.99,5.69 c -0.31,1.03 -1.7,0.92 -2.5,1.33 c -1.4,0.01 -2.75,0.23 -4.03,0.68 c 2.42,0.29 4.86,0.57 7.32,0.84 c 0.81,0.86 1.58,1.77 2.31,2.72 c 1.88,0.55 0.26,-2.71 2.85,-2.91 c 3.49,-0.17 8.51,-0.59 11.77,0.67 Z M 427.01,471 c 0.02,-7.49 0.06,-14.98 0.11,-22.47 c 0.06,-0.88 0.52,-1.38 1.4,-1.49 c 56.99,-0.13 113.98,-0.13 170.97,0.02 c 0.9,0.06 1.42,0.54 1.56,1.44 c 0.1,10.68 0.12,21.36 0.05,32.04 c 0.06,1.25 -0.51,1.96 -1.73,2.13 c -56.61,0.17 -113.22,0.2 -169.84,0.08 c -1.09,0.05 -1.86,-0.39 -2.32,-1.33 c -0.19,-3.47 -0.26,-6.94 -0.2,-10.42 Z M 328.17,454.78 c 1.96,0.96 7.99,3.61 9.68,1.61 c -1.63,-0.74 -8.92,-4.49 -9.68,-1.61 Z M 866.01,482.22 c -0.11,2.42 -0.09,4.84 0.04,7.26 c 0,1.07 1.05,2.18 1.68,0.84 c 0.36,-1.41 0.35,-9.63 -0.44,-10.23 c -0.26,-4.54 -0.25,-9.07 0.03,-13.61 c -0.36,-2.1 0.02,-6.57 -1.16,-8.2 c -0.45,-0.26 -0.79,-0.16 -1.04,0.3 c -0.08,4.64 -0.06,9.28 0.05,13.92 c 0.53,3.22 0.81,6.45 0.84,9.72 Z M 429.98,481.96 c 52.59,0.08 105.17,-0.02 157.73,-0.27 c -2.37,-0.57 -4.77,-0.81 -7.21,-0.71 c -49,-0.01 -98,-0.01 -147,-0.01 c -1.32,-0.1 -2.49,0.23 -3.52,0.99 Z M 216.02,514.98 c 34.92,-0.11 69.83,-0.22 104.72,-0.33 c -0.88,-0.85 -4.02,-0.36 -5.24,-0.6 c -32.68,0.07 -65.36,0.05 -98.04,-0.05 c -0.8,-0.09 -1.28,0.23 -1.44,0.98 Z M 638.01,514.93 c 42.86,-0.02 85.73,-0.02 128.6,0.01 c 1.52,-0.25 1.47,-0.51 -0.17,-0.77 c -42.33,-0.1 -84.65,-0.12 -126.98,-0.06 c -0.66,-0.01 -1.14,0.26 -1.45,0.82 Z M 461.01,764.05 c -0.85,-1.24 -1.79,-2.39 -2.81,-3.45 c 1.64,-3.23 3.49,0.67 5.46,-1.08 c -0.5,-1.53 0.54,-2.12 -0.75,-3.82 c -1.15,-1.21 -2.39,-2.32 -3.7,-3.33 c 0.38,-0.72 0.85,-1.39 1.4,-2.01 c 2.68,1.97 2.76,0.31 3.39,-1.61 c 0.99,-0.21 1.87,-0.63 2.65,-1.25 c -0.96,-0.45 -2,-0.73 -3.12,-0.84 c -0.53,-0.29 -0.66,-0.68 -0.38,-1.15 c 2.42,0.56 5.84,1.6 6.84,-1.63 c 10.39,-6.3 16.45,-18.72 24.96,-27.37 c 2.73,-3.36 1.51,-10.74 3.52,-14.81 c 2.49,-5.98 19.54,-12.03 25.89,-11.91 c 13.19,-3.04 27.22,-27.53 26.52,-40.29 c -1.04,-9.93 -1.71,-10.76 6.7,-16.43 c 3.85,-8.35 9.42,-11.87 15.87,-18.13 c 5.07,-4.96 4.83,-18.57 -1.15,-22.49 c -7.22,-1.34 -10.34,-2.36 -15.33,-7.93 c -8.01,-8.04 -15.31,-4.66 -25.35,-5.73 c -2.73,-3.16 -2.64,-2.46 -6.72,-3.24 c -5.14,-5.96 -14.23,-10.14 -21.74,-6.62 c -0.09,-0.25 -0.18,-0.49 -0.26,-0.74 c 0.47,-4.91 -6.73,-3.82 -9.54,-2.95 c -0.6,0.15 -1.02,-0.04 -1.26,-0.57 c 1.35,-1.69 2.64,-3.44 3.88,-5.24 c 2.7,-3.92 -1.32,-6.62 -3.07,-9.87 c -3.33,-5.79 -3.69,-9.11 -10.88,-10.28 c -9.77,-6.47 -14.85,-11.45 -27.39,-8.54 c -2.17,-0.63 -4.22,-1.52 -6.16,-2.68 c -1.72,-0.1 -9.35,-0.53 -10.33,0.61 c -0.17,8.55 -0.34,17.1 -0.5,25.65 c -2.35,7.28 -10.2,5.58 -16.15,5.77 c -33.34,0.03 -66.68,-0.03 -100.02,-0.18 c -0.61,-0.04 -1.19,0.05 -1.75,0.28 c -4.15,7.12 -0.3,8.87 0.49,14.29 c -1.44,6.75 -1.78,8.48 1.02,14.9 c 0.7,1.12 7.29,5.1 8.46,8.6 c 7.74,11.6 12.94,24.8 20.68,36.14 c 10.89,12.44 29.5,12.92 35.32,29.56 c 2.42,6.47 2.94,13.08 1.56,19.85 c 1.73,11 1.83,20.81 1.39,31.97 c 0.95,6.98 3.84,12.31 3.06,19.97 c -0.91,7.76 -3.35,10.47 0.17,18.05 c -0.75,6.36 2.93,11.31 1.66,17.48 c 1.48,3.16 2.93,6.34 4.33,9.53 c -0.36,2.22 -0.81,4.41 -1.33,6.58 c 0.88,1.55 1.53,-0.41 2.15,-0.9 c 0.25,-0.03 0.5,-0.06 0.74,-0.09 c 4.88,2.38 0.81,4.35 1.47,7.39 c 2.42,6.64 13.49,20.89 21.58,20.57 c 7.4,3.49 12.78,7.99 21.06,3.92 c 0.55,-0.3 0.73,-0.75 0.54,-1.34 c -3.03,-1.23 -5.9,-2.79 -8.59,-4.7 c -2.14,-2.69 -9.73,-7.38 -7.43,-11.43 c 1.25,-2.49 2.69,-4.83 4.34,-7.02 c 0.08,-1.19 -5.3,-4.9 -5.94,-6.39 c -1.55,-3.58 0.57,-3.78 3.03,-5.17 c 7.97,-10.15 24.76,-4.48 32.98,-12.89 c 1.07,-2.1 0.58,-3.78 -1.46,-5.01 Z M 747.27,717.78 c 3.32,0.95 25.51,-9 29.36,-11.55 c 9.99,-7.75 15.76,-18.87 24.62,-27.57 c 1.32,-1.28 0.19,-4.01 2.07,-5.8 c 9.32,-4.37 9.94,-9.63 10.81,-19.34 c 2.48,-7.8 17.94,-15.71 21.35,-26.51 c 1.85,-6.68 3.23,-12.49 3.58,-19.41 c 3.74,-5.71 -0.06,-13.65 1.89,-20.12 c 3.25,-9.09 7.91,-17.01 12.27,-25.54 c 0.4,-0.58 0.43,-1.14 0.09,-1.69 c -29.94,-0.15 -59.88,-0.23 -89.82,-0.22 c -0.89,-0.15 -1.66,0.06 -2.31,0.63 c 0.85,2.96 1.8,5.91 2.86,8.83 c 3.77,13.78 5.84,26.34 2.46,40.52 c -9.11,14.53 -15.79,29.91 -14.42,47.49 c 3.99,14.23 -4.14,26.05 -2.38,39.96 c -1.49,3.73 -1.37,18.27 -2.43,20.32 Z M 822.66,673.01 c 0.03,0.69 0.29,1.27 0.76,1.74 c 1.88,-2.04 3.72,-4.12 5.52,-6.26 c 9.05,-11.76 14.1,-26.05 20.69,-39.18 c 0.6,-3.65 1.06,-6.82 2.5,-10.33 c 0.3,-0.82 0.07,-2.63 -1.02,-1.37 c -1.15,4.03 -7.5,10.29 -10.12,13.88 c -5.75,4.11 -4.68,5.65 -6.39,12.55 c -3.48,9.14 -12.93,18.87 -11.94,28.97 Z M 452.19,808.22 c 0.46,2.76 11.38,3.72 11.65,0.46 c -1.07,-1.24 -9.98,-1.07 -11.65,-0.46 Z"/></g>
<g><path fill="#727271" d="M 867.29,480.09 c -0.1,0.92 -0.53,1.63 -1.28,2.13 c -0.03,-3.27 -0.31,-6.5 -0.84,-9.72 c -0.11,-4.64 -0.13,-9.28 -0.05,-13.92 c 0.25,-0.46 0.59,-0.56 1.04,-0.3 c 1.18,1.63 0.8,6.1 1.16,8.2 c -0.28,4.54 -0.29,9.07 -0.03,13.61 Z"/></g>
<g><path fill="#676463" d="M 335.01,425.01 c 0.77,-0.47 1.54,-0.42 2.3,0.15 c 1.09,1.13 0.87,1.71 -0.67,1.75 c -0.92,-0.32 -1.46,-0.95 -1.63,-1.9 Z"/></g>
<g><path fill="#e8e5e7" d="M 651.71,237.78 c 0.43,0.03 0.85,0.06 1.28,0.09 c 0.05,1.15 0.78,3.94 -1.1,3.88 c 0.11,-1.33 0.05,-2.66 -0.18,-3.97 Z"/></g>
<g><path fill="#978d92" d="M 652.99,237.87 c -0.43,-0.03 -0.85,-0.06 -1.28,-0.09 c 0.5,-0.66 0.93,-0.63 1.28,0.09 Z M 651.71,237.78 c 0.23,1.31 0.29,2.64 0.18,3.97 c -1.33,0.25 -0.86,-3.29 -0.18,-3.97 Z"/></g>
<g><path fill="#a5a0a2" d="M 397.94,842.98 c 5,1.14 9.99,2.28 14.96,3.42 c -0.01,0.1 -0.02,0.2 -0.03,0.29 c -1.21,-0.2 -2.24,0.11 -3.09,0.92 c -4.12,-1.11 -8.67,-2.02 -12.42,-4.15 c 0.12,-0.25 0.31,-0.41 0.58,-0.48 Z"/></g>
<g><path fill="#959091" d="M 711.22,339.3 c 0.98,-0.32 1.03,1.45 -0.28,1.65 c 0.06,-0.56 0.15,-1.11 0.28,-1.65 Z"/></g>
<g><path fill="#c9c6c5" d="M 709.7,339.26 c 0.51,0.01 1.02,0.03 1.52,0.04 c -0.13,0.54 -0.22,1.09 -0.28,1.65 c -0.4,-0.08 -0.8,-0.15 -1.2,-0.22 c 0.13,-0.5 0.12,-0.99 -0.04,-1.47 Z"/></g>
<g><path fill="#62605e" d="M 709.7,339.26 c 0.16,0.48 0.17,0.97 0.04,1.47 c -0.82,-0.48 -0.83,-0.97 -0.04,-1.47 Z"/></g>
<g><path fill="#d5d2d2" d="M 388.72,216.15 c 1.23,0.2 1.26,0.46 0.09,0.79 c -0.03,-0.26 -0.06,-0.52 -0.09,-0.79 Z"/></g>
<g><path fill="#726e6e" d="M 388.72,216.15 c 0.03,0.27 0.06,0.53 0.09,0.79 c -0.62,-0.25 -0.65,-0.51 -0.09,-0.79 Z"/></g>
<g><path fill="#dad6d7" d="M 716.06,335.99 c 0.29,-2.03 2.81,-1.29 2.94,0.59 c -0.57,1.44 -2.68,0.7 -2.94,-0.59 Z"/></g>
<g><path fill="#131312" stroke="#131312" stroke-width="0.5" d="M 638.19,158.55 c -0.26,0.39 -0.58,0.73 -0.94,1.02 c -0.9,-0.19 -1.81,-0.39 -2.74,-0.59 c -2.28,0.63 -2.33,1.2 -4.16,-1.1 c -1.81,-0.29 -3.83,1.44 -4.83,2.78 c -0.49,-0.21 -0.93,-0.2 -1.34,0.04 c 0.41,0.91 0.62,1.86 0.62,2.85 c -2.21,-0.84 -4.5,-1.35 -6.86,-1.54 c -0.25,-0.02 -0.51,-0.04 -0.76,-0.07 c -0.97,-1.24 -17.8,-3.46 -20.3,-4.21 c 0.04,-0.6 -0.16,-1.09 -0.59,-1.47 c -5.19,0 -9.78,-1.12 -14.78,-2.22 c -3.2,-0.04 -6.38,-0.2 -9.53,-0.46 c 1.09,-0.31 2.21,-0.52 3.37,-0.61 c 0.87,-1.04 -1.51,-1.15 -2.05,-1.53 c -25.88,-7.18 -54.16,-5.45 -80.8,-6.33 c -18.84,1.38 -38.65,3.86 -56.78,9.11 c -1.47,1.12 2.81,2.61 -0.61,2.69 c -1.04,0.99 -1.12,2.05 -0.23,3.18 c 1.13,0.27 2.28,0.46 3.44,0.56 c 1.61,-0.33 6.72,-1.22 7.37,0.82 c -0.94,1.26 -13.03,0.29 -15.14,0.08 c -1.97,-1.03 -4.04,-1.92 -6.36,-1.52 c 0.04,-0.69 0.42,-1.1 1.13,-1.22 c 2.27,-0.91 4.61,-1.59 7.01,-2.05 c 1.12,-1.15 0.87,-1.79 -0.75,-1.94 c -5.94,1.48 -11.88,2.99 -17.82,4.51 c -22.58,6.6 -46.95,16.11 -67.76,27.16 c -2.69,2.72 -5.58,5.22 -8.65,7.49 c -0.95,0.94 -1.12,2.01 -0.51,3.22 c -2.59,0.23 -5.18,0.39 -7.76,0.5 c -3.63,2 -7.33,3.87 -11.09,5.6 c -11.3,7.92 -22.77,15.99 -33.86,24.32 c -20.31,15.55 -36.07,36.05 -53.2,54.8 c -0.82,2.18 -1.97,4.15 -3.46,5.92 c 2,1.49 1.47,1.78 0.46,3.82 c -0.37,0.11 -0.61,0.35 -0.73,0.71 c -1.58,2.36 -3.11,4.77 -4.57,7.21 c -1.24,3.3 -3.47,9.08 -6.65,10.85 c -0.09,-2.63 2.34,-3.26 2.11,-5.9 c 0.57,-0.12 0.92,-0.48 1.05,-1.05 c 0.75,-0.67 0.59,-0.96 -0.48,-0.85 c -0.4,0.26 -0.56,0.63 -0.47,1.09 c -1.73,-0.08 -3.21,5.44 -4.13,5.52 c 0.13,-0.64 0.07,-1.23 -0.19,-1.77 c -1.52,1.13 -2,0.8 -1.45,-0.98 c 2.08,-0.81 2.53,-0.79 2.23,-3.3 c -0.73,-1.53 -1.74,0.41 -2.23,0.93 c -0.46,-0.2 -0.91,-0.2 -1.35,0 c -0.76,1.41 -1.63,2.76 -2.6,4.04 c -0.88,-0.68 -1.6,-1.52 -2.15,-2.52 c -0.45,-0.22 -0.93,-0.32 -1.44,-0.31 c 28.09,-44.19 67.85,-82.68 112.05,-110.6 c 41.02,-25.74 81.29,-41.52 128.69,-51.06 c 63.2,-11.74 132.01,-7.75 192.57,14.38 Z M 575.25,160 c 8.09,-0.77 6.39,2.67 11.47,4.52 c -5.5,1.58 -7.96,-1.54 -11.47,-4.52 Z M 423.03,160.76 c -3.09,0.19 -4.97,1.81 -5.62,4.85 c -0.14,0.46 -0.07,0.88 0.21,1.26 c 1.91,0.64 3.87,1.02 5.88,1.13 c 3.16,-0.13 6.31,-0.43 9.43,-0.9 c 0.03,0.66 0.07,1.32 0.11,1.97 c -2.14,0.52 -1.42,3.44 -0.28,4.58 c -0.88,0.42 -1.71,0.35 -2.5,-0.2 c 1.39,-4.91 -5.91,-4.21 -8.72,-4.32 c -4.86,0.91 -16.84,4.8 -19.09,9.42 c 0.19,0.51 0.2,1 0.02,1.49 c -1.21,0.42 -2.34,0.97 -3.4,1.64 c -0.18,0.55 -0.01,0.96 0.5,1.23 c 1.37,0.3 2.75,0.47 4.12,0.51 c -1.3,1.71 -2.91,3.74 -4.68,4.97 c -3.69,1.92 -7.35,3.91 -10.97,5.98 c -1.04,0.64 -1.14,-0.69 -0.5,-1.35 c 1.55,-0.82 3.49,-0.94 4.01,-2.97 c 0.5,-1.58 -0.1,-2.33 -1.79,-2.22 c -0.13,0.06 -0.26,0.12 -0.4,0.18 c 0.09,-1.34 0.14,-2.7 0.18,-4.05 c 0.66,-1.58 1.47,-3.07 2.41,-4.47 c 3.52,-2.82 8.12,-3.01 12.13,-4.77 c 2.62,-1.52 5.26,-2.99 7.9,-4.43 c 0.02,-0.22 0.04,-0.44 0.06,-0.66 c -1.27,-1.28 -7.21,-0.59 -8.99,0.03 c -1.79,1.04 -3.66,1.86 -5.63,2.49 c -1.46,-0.22 -2.93,-0.33 -4.41,-0.34 c 0,-0.63 -0.05,-1.26 -0.16,-1.88 c 2.1,-0.95 4.26,-1.71 6.48,-2.28 c 3.7,-0.48 7.42,-0.73 11.14,-0.73 c 1.46,-0.24 2.48,-1.03 3.05,-2.39 c -0.55,-0.37 -1.19,-0.58 -1.91,-0.63 c -1.82,-1.27 3.76,-2.59 4.43,-2.77 c 1.5,-0.25 6.26,-2.23 6.99,-0.37 Z M 497.13,177.65 c -0.26,-0.42 -0.29,-0.85 -0.08,-1.3 c 2.81,-0.63 6,-2.87 7.61,1.1 c -0.25,0.4 -0.63,0.55 -1.11,0.48 c -2.62,-0.9 -4,-0.31 -6.42,-0.28 Z M 378.11,177.83 c 0.09,0.32 0.19,0.63 0.28,0.95 c -0.2,2.8 2.21,1.78 2.68,3.69 c -0.81,0.84 -1.62,1.68 -2.42,2.54 c -0.32,0.63 -0.55,1.3 -0.69,1.99 c -0.61,-0.15 -1.2,-0.09 -1.76,0.18 c -1.34,-0.2 -2.61,0.03 -3.81,0.69 c -2,1.32 -4.06,2.51 -6.18,3.57 c 1.84,1.93 7.35,-0.79 8.76,-2.72 c 0.52,-0.01 0.93,0.2 1.22,0.63 c -0.76,0.67 -1.39,1.44 -1.89,2.3 c 1.04,0.39 2.01,0.9 2.92,1.54 c -3.47,0.62 -6.75,1.75 -9.85,3.41 c -1.74,0.64 -0.48,-0.79 -0.77,-1.41 c -2.5,-0.62 -14.09,2.62 -18.61,2.59 c -0.54,-0.67 -1.25,-1.15 -2.12,-1.45 c 3.29,-2.17 7.68,-2.08 11.43,-2.78 c 3.61,-0.75 6.41,-3.43 9.76,-4.9 c 0.7,-0.61 1.42,-1.2 2.16,-1.78 c -0.25,-1.4 -0.69,-2.75 -1.33,-4.05 c 0.63,-0.85 1.31,-1.68 2.04,-2.52 c 2.62,-1.2 5.35,-2.03 8.18,-2.47 Z M 438.96,213.04 c 1.05,-0.46 2.15,-0.72 3.32,-0.79 c 0.82,0.48 1.69,0.61 2.61,0.38 c 0.64,0.13 1.21,0.4 1.7,0.81 c -1.24,1.01 -2.61,1.78 -4.11,2.31 c -0.5,-0.52 -1.08,-0.8 -1.76,-0.84 c -0.99,1.99 -0.14,3.8 -1.59,5.8 c 0.5,0.38 1.03,0.76 1.57,1.13 c 0.03,1.36 3.81,7.62 5.24,5.58 c 0.56,-1.02 1.11,-2.04 1.64,-3.06 c 0.39,0.59 0.48,1.24 0.28,1.94 c -0.91,1.59 -1.58,3.27 -2.01,5.04 c -0.43,0.78 -1.05,1.35 -1.88,1.7 c -1.32,-3.59 -2.98,-7 -4.98,-10.23 c -6.35,-0.56 -11.02,10.93 -19.92,6.86 c -1.99,-1.76 0.86,-7.92 2.57,-9.33 c -0.05,-0.13 -0.1,-0.25 -0.15,-0.37 c -6.03,-1.34 -8.07,-7.82 -15.11,-5.57 c -3.56,-0.08 -8.02,-2.09 -10.84,0.95 c -0.99,-3.02 -3.12,-3.24 -5.82,-3.54 c -0.37,-0.28 -0.57,-0.65 -0.58,-1.11 c 1.21,0.53 4.85,-0.07 5.37,-1.27 c -2.27,-2.49 -4.66,-4.89 -7.16,-7.19 c -0.56,-0.66 -0.79,-1.42 -0.7,-2.27 c 3.82,-0.95 7.69,-1.78 11.62,-2.49 c 4.17,-1.26 6.13,-2.81 7.95,-6.75 c 0.9,-1.14 6.1,-3.18 5.23,-4.97 c -2.49,-1.17 -0.66,-1.75 1.02,-1.85 c 4.05,0.13 8.06,-0.16 12.05,-0.88 c 3.58,0.18 9.84,6.67 5.83,9.91 c -2.39,1.73 -4.96,3.14 -7.72,4.21 c -2.12,1.89 2.61,1.37 1.01,2.88 c -2.42,0.27 -4.8,0.74 -7.14,1.43 c -6.02,0.69 -9.38,-2.56 -12.72,4.29 c 4.85,3.57 12.49,-2.81 15.58,1.46 c 4.26,7.22 6.84,5.49 14.15,7.66 c 1.2,0.06 6.56,0.71 5.45,-1.83 Z M 418.35,192.66 c 2.43,1.1 7.7,-1.84 10.33,-2.2 c -3.46,-2.46 -8.18,-2.44 -10.33,2.2 Z M 602.18,195.59 c 1.97,1 4.07,1.53 6.3,1.6 c 3.84,0.65 8.54,3.8 12.06,0.89 c 2.31,0.49 -1.21,2.82 -1.86,3.11 c -0.96,1.05 -1.3,2.54 -2.92,2.83 c -5.01,-3.23 -11.27,-2.45 -16.92,-2.6 c -0.32,-1.98 1.17,-1.83 2.23,-2.77 c -0.54,-1.96 -0.7,-1.63 1.11,-3.06 Z M 426.2,200.68 c 2.05,-3.62 5.05,-4.8 8.59,-2.16 c -0.99,-0.13 -8.1,2.43 -8.59,2.16 Z M 749.28,220.73 c 24.45,19.27 45.23,41.2 63.89,66.08 c -0.5,0.83 -1.11,0.91 -1.83,0.26 c -0.84,-1.43 -1.83,-2.74 -2.96,-3.92 c -1.36,-1.32 -2.79,-2.57 -4.27,-3.75 c -0.56,-0.1 -1.1,0 -1.6,0.33 c -0.67,-0.59 -1.4,-1.1 -2.18,-1.53 c -0.77,0.24 -1.55,0.33 -2.33,0.25 c -0.89,-0.68 -1.72,-1.39 -2.51,-2.16 c -0.29,0.62 -0.34,1.27 -0.16,1.95 c 0.65,0.57 1.25,1.19 1.8,1.86 c 0.04,0.82 0.87,2.47 -0.17,2.97 c -9.58,-11.87 -19.35,-25.38 -33.02,-32.62 c -0.76,-0.9 -4.09,-2.75 -3.97,-3.89 c 1.05,-0.96 1.63,1.14 2.75,-0.21 c -1.1,-1.05 -2.25,-2.09 -3.47,-3.1 c -5.53,-7.16 -10.8,-11.28 -18.27,-16.15 c 0.22,-2 -1.41,-3.37 0.69,-4.94 c 3.5,0.04 -1.02,4.69 1.6,3.71 c 2.61,-0.88 0.36,-2.04 1.77,-3.37 c 0.66,-0.1 1.32,-0.09 1.98,0.04 c 0.67,-0.71 1.42,-1.32 2.26,-1.81 Z M 710.98,250 c 0.11,-0.8 0.25,-1.61 0.41,-2.4 c 2.44,2.75 5.08,5.3 7.91,7.64 c 2.11,1.63 1.62,5.93 3.31,6.67 c 4.33,1.87 6.49,-0.33 10.61,-0.25 c 1,-0.58 -0.39,-2.8 -0.49,-3.62 c 1.46,-0.05 2.71,0.44 3.73,1.5 c 1.93,-0.86 -0.57,-4.12 -3.59,-3.39 c -2.39,-0.09 -4.45,-3.06 -4.76,-5.27 c 0.79,-2.27 1.12,-2.87 -0.58,-4.94 c -4.85,-4.63 -13.87,-8.29 -9.78,-16.45 c -0.11,-1.11 -0.53,-2.09 -1.27,-2.94 c 0.08,-0.12 0.15,-0.25 0.23,-0.37 c 9.58,0.52 2.76,8.6 8.7,12.92 c 4.77,2.98 9.3,8.39 14.26,10.61 c 1.4,0.14 2.75,0.4 4.05,0.79 c -1.03,0.25 -2.09,0.41 -3.18,0.49 c -1.54,1.04 0.83,2.58 1.49,3.32 c 1.08,0.52 8.43,5.31 6.35,6.56 c -2.12,0.18 -2,-1.65 -3.85,-1.75 c -0.57,0.56 -0.61,1.19 -0.11,1.89 c 1.01,0.9 5.13,9.31 2.89,9.53 c -4.29,-1.35 -6.53,-0.85 -10.77,-0.14 c -1.52,-0.15 -10.43,-3.62 -12.5,-3.15 c -9.17,-4.39 -8.7,-13.26 -13.06,-17.25 Z M 367.69,250.41 c -1.54,6.57 -1.25,14.98 -9.32,17.07 c -3.56,0.33 -6.25,-7.11 -4.02,-10.26 c 0.85,-1.78 1.74,-3.54 2.65,-5.28 c 0.73,0.01 1.36,0.24 1.9,0.71 c -0.63,1.97 -1.17,3.97 -1.63,6 c -0.13,0.82 0.19,1.22 0.98,1.21 c 0.93,-1.68 2.17,-3.12 3.7,-4.32 c 0.66,0.03 1.27,-0.05 1.83,-0.24 c 0.23,-1.09 0.78,-1.99 1.64,-2.7 c 0.53,-1.1 0.53,-4.81 2.27,-2.19 Z M 669.31,269.92 c -0.87,0.69 -1.48,1.57 -1.83,2.63 c -1.29,-1.22 -1.59,-2.61 -0.89,-4.19 c -0.14,-0.51 -0.47,-0.81 -1,-0.91 c -0.24,1.16 -1.04,3.55 -2.51,1.94 c -0.08,-0.92 -0.27,-1.81 -0.59,-2.67 c 1.22,-2.86 0,-10.92 -1.87,-13.62 c 0.39,-0.69 0.51,-1.42 0.35,-2.2 c 1.77,-1.42 1.92,1.71 3.08,2.57 c 3.17,1.58 7.84,5.14 9.42,8.51 c 0.9,1.41 -2.38,0.85 -2.9,1.16 c -1.8,1.57 2.71,2.33 -1.09,4.8 c -0.36,0.63 -0.41,1.29 -0.17,1.98 Z M 461.83,259.5 c 0.06,0.8 0.12,1.6 0.2,2.41 c -7.53,1.43 -14.2,12.5 -17.96,18.74 c -0.05,0.42 0.07,0.78 0.36,1.09 c -1.25,2.24 -2.97,3.22 -5.32,1.66 c 0.03,-0.69 0.2,-1.35 0.52,-1.98 c -0.56,-0.41 -1.12,-0.37 -1.68,0.1 c -0.49,0.75 -0.66,1.56 -0.52,2.45 c -0.45,0.54 -0.84,1.11 -1.18,1.71 c 1.11,1.14 3.01,-2 4.4,-0.23 c -1.27,1.29 -2.81,1.81 -4.61,1.57 c -3.59,0.26 -4.93,5.33 -8.46,4.86 c 0.12,-0.67 0.21,-1.36 0.28,-2.09 c -0.21,-1.72 -7.95,-5.61 -9.69,-6.37 c -2.4,-1.73 0.77,-5.93 1.82,-7.65 c 0.08,-0.3 0.11,-0.61 0.08,-0.92 c -6.59,-1.9 -10.6,-0.27 -16.46,2.37 c -0.79,0.61 -1.61,1.17 -2.45,1.68 c -1.16,-0.26 -1.3,-0.82 -0.44,-1.68 c 2.93,-1.54 12.11,-7.7 14.32,-7.89 c 6.6,-0.01 23.72,1.49 29.36,-1.49 c 6.05,-4.12 10.31,-6.22 17.43,-8.34 Z M 707,267.96 c -2.35,0.73 -4.03,5.16 -5.59,6.98 c -1.1,1.27 -2.36,2.36 -3.76,3.28 c -0.88,1.93 -3.76,4.73 -6.02,4.54 c -2.04,-0.29 -4.02,-0.77 -5.94,-1.46 c -1.87,1.16 3.27,4.24 -0.12,3.46 c -3.41,-1.22 -6.87,-1.42 -10.38,-0.57 c -0.98,0.35 -1.9,0.84 -2.76,1.45 c -0.85,-0.62 0.27,-1.65 0.44,-2.37 c -0.28,-1.55 -0.44,-3.1 -0.49,-4.65 c 0.53,-0.52 1.13,-0.91 1.83,-1.17 c 2.61,0.78 14.83,-0.46 18.15,-0.69 c 0.5,-0.12 0.8,-0.43 0.92,-0.92 c -0.16,-0.92 -0.49,-1.77 -0.98,-2.54 c -0.39,-1.7 2.26,-4.24 0.7,-5.33 c 0.26,-0.57 0.69,-0.83 1.3,-0.76 c 0.51,1.11 1.27,2.03 2.26,2.77 c 0.24,0.78 0.43,1.58 0.55,2.39 c 0.91,0.74 1.71,0.6 2.39,-0.43 c 0.42,-0.82 2.6,-3.99 0.23,-3.75 c -0.48,0.45 -0.9,0.95 -1.27,1.51 c -1.84,-2.69 0.96,-2.63 2.56,-3.16 c 0.79,-1.22 1.88,-1.67 3.26,-1.33 c 1.65,0.23 2.56,1.15 2.72,2.75 Z M 425.86,271.99 c 0.8,1.36 4.86,3.15 6.07,2.3 c 0.55,-1.88 -6.14,-3.42 -6.07,-2.3 Z M 303.93,291.95 c 6.01,-0.47 20.46,-20.3 23.92,-6.04 c 1.35,4.34 -5.31,5.9 -8.37,5.83 c -3.3,-0.64 -4.42,-2.5 -7.92,-0.61 c -1.71,1.25 -6.55,4.02 -7.63,0.82 Z M 221.16,296.81 c 2.16,1.35 6.08,-5.08 4.43,-5.77 c -1.83,1.65 -3.31,3.57 -4.43,5.77 Z M 307,318 c 0.08,-5.84 6.85,-18.11 12.29,-21.32 c 5.61,-2.89 16.49,-3.99 21.49,0.09 c 0.12,0.81 1.86,3.4 1.29,4.07 c -1.51,0.31 -2.97,0.76 -4.39,1.35 c -0.88,0.47 -4.14,8.97 -5.3,6.18 c -1.41,-3.4 -2.7,-6.84 -3.88,-10.31 c -1.65,-2.98 -11.21,7.01 -12.68,8.29 c -2.58,3.46 -1.5,7.56 -4.19,10.77 c -1.21,1.32 -2.55,2.46 -4.02,3.42 c -0.94,-0.44 -0.45,-1.72 -0.61,-2.54 Z M 690.13,296.82 c 3.76,4.55 4.85,7.5 3.91,13.68 c -1.28,3.22 -4.47,2.53 -7.05,1.5 c 0.07,-0.8 0.01,-1.58 -0.18,-2.36 c -0.8,-0.43 -1.62,-0.82 -2.46,-1.16 c 1.35,-1.33 2.73,-0.2 4.06,0.38 c 1.55,-1.65 -1.01,-2.59 -2.06,-3.37 c 2.88,-1.75 1.98,-1.16 3.65,0.98 c 0.99,0.63 1.09,-0.83 0.63,-1.43 c -1.36,-2.81 -3.6,-3.09 -1.81,-6.42 c -0.46,-1.2 -0.02,-1.8 1.31,-1.8 Z M 328.02,316 c 3.47,-1.39 13.38,-7.17 16.75,-5.55 c -0.09,0.41 -0.31,0.73 -0.67,0.95 c -4.76,2.18 -9.63,4.07 -14.6,5.68 c -0.86,0.11 -1.35,-0.25 -1.48,-1.08 Z M 775.34,338.86 c -1.07,0.17 -2.13,0.31 -3.2,0.44 c -2.97,-4.26 -6.89,-7.32 -11.74,-9.17 c -2.75,-1.85 -13.12,-12.95 -14.21,-15.82 c -0.77,-2.58 3.1,0.32 3.75,0.46 c 5.02,4.25 25.04,18.51 25.4,24.09 Z M 797.38,330.87 c 0.16,-1.52 0.16,-3.42 1.22,-4.6 c 1.63,1.24 3.24,2.51 4.83,3.82 c 2.85,4.27 2.03,8.6 8.65,8.64 c 7.21,4.53 12.17,12.15 16.62,19.25 c 0.57,1.24 0.18,1.84 -1.18,1.78 c -4.33,-0.72 -7.19,-4.94 -10.49,-7.47 c -4.42,-3.3 -7.63,1.85 -11.79,-0.23 c -4.49,-7.37 -7.22,-12.36 -7.86,-21.19 Z M 809.34,332.32 c 0.1,-0.55 0.24,-1.1 0.4,-1.63 c 1.18,0.55 2.7,2.82 1.67,3.95 c -1.14,-0.35 -1.83,-1.12 -2.07,-2.32 Z M 801.34,356.88 c -2.69,4.61 -3.13,-1.34 -6.2,-0.95 c -1.9,-2.56 -3.82,-5.11 -5.75,-7.62 c -0.14,-0.33 -0.09,-0.62 0.12,-0.87 c 1.23,-0.53 2.5,-0.86 3.83,-0.98 c 3.12,0.12 6.7,8.16 8,10.42 Z M 826.6,377.73 c -0.91,0.41 -1.6,1.06 -2.06,1.95 c -0.7,-0.47 -1.46,-0.64 -2.28,-0.51 c -0.43,-0.91 -1.15,-1.4 -2.17,-1.46 c -0.01,-0.5 -0.22,-0.9 -0.65,-1.21 c 0.78,-0.48 1.34,-1.14 1.7,-1.97 c 3.57,-0.49 3.86,-0.04 5.46,3.2 Z M 325.18,436.48 c -0.67,1.44 -2.48,2.25 -3.65,3.21 c -1.14,-1 -1.23,-3.71 -2.99,-3.83 c -3.56,0.21 -3.56,0.32 -6.16,-1.9 c -1,0.16 -1.8,0.67 -2.41,1.53 c -0.53,0.13 -1.04,0.07 -1.55,-0.18 c -0.75,1.95 -1.67,2.04 -2.77,0.29 c 1.47,-2.46 4.54,-3.63 7.32,-3.76 c 4.16,1.28 8.23,2.83 12.21,4.64 Z M 166.5,623.23 c -2.19,-5.96 -4.1,-12.01 -5.72,-18.15 c 0.66,-0.56 1.27,-1.16 1.83,-1.82 c 2.69,1.6 1.91,3 3.21,5.44 c -0.56,1.51 -0.84,3.09 -0.84,4.72 c 0.69,2.72 1.57,5.39 2.65,8.01 c -0.09,0.78 -0.46,1.38 -1.13,1.8 Z M 469.99,743.88 c -1,3.23 -4.42,2.19 -6.84,1.63 c -0.28,0.47 -0.15,0.86 0.38,1.15 c 1.12,0.11 2.16,0.39 3.12,0.84 c -0.78,0.62 -1.66,1.04 -2.65,1.25 c -0.63,1.92 -0.71,3.58 -3.39,1.61 c -0.55,0.62 -1.02,1.29 -1.4,2.01 c 1.31,1.01 2.55,2.12 3.7,3.33 c 1.29,1.7 0.25,2.29 0.75,3.82 c -1.97,1.75 -3.82,-2.15 -5.46,1.08 c 1.02,1.06 1.96,2.21 2.81,3.45 c -4.43,-0.12 -18.72,3.15 -23.5,4.6 c -0.58,0.46 -2.91,-0.39 -2.93,0.55 c 2.35,-0.32 1.94,-2.64 2.43,-4.35 c 0.01,-0.95 -1.32,-1.84 -0.33,-2.59 c 6.03,-0.24 11.8,0.09 17.74,-1.27 c 2.83,-1.15 6.33,-5.23 2.81,-7.76 c -1.02,-0.51 -1.94,-1.11 -2.78,-1.82 c 3.95,-3.57 3.2,-5.34 -0.85,-8.41 c -0.98,-0.93 -1.16,-2.57 0.66,-1.91 c 5.78,3.32 9.11,3.26 15.73,2.79 Z M 657.06,834.56 c 0.02,0.45 0.22,0.8 0.59,1.04 c 1.77,0.47 3.43,1.18 4.98,2.13 c 0.89,0.03 1.51,-0.37 1.86,-1.19 c 0.16,0.94 0.71,1.53 1.66,1.77 c -40,17.9 -79.95,28.01 -123.65,31.48 c -56.85,3.66 -107.73,-3.46 -160.62,-24.56 c 0.54,-1.73 2.43,-0.69 3.67,-1 c 1.46,-0.59 1.38,-0.91 -0.22,-0.95 c -0.47,-0.18 -0.84,-0.48 -1.11,-0.89 c 1.11,-0.69 2.88,0.32 3.58,-0.99 c -1.09,-0.49 -2.22,-0.93 -3.38,-1.34 c -0.8,-0.82 -0.55,-3.17 0.82,-2.89 c 2.25,1.12 3.01,0.23 4.44,2.72 c 1.73,0.3 7.49,1.43 8.26,3.09 c -0.27,0.07 -0.46,0.23 -0.58,0.48 c 3.75,2.13 8.3,3.04 12.42,4.15 c 79.41,25.44 165.98,21.75 242.55,-11.27 c 1.58,-0.6 3.15,-1.19 4.73,-1.78 Z"/></g>
<g><path fill="#d3ced1" d="M 221.16,296.81 c 1.12,-2.2 2.6,-4.12 4.43,-5.77 c 1.65,0.69 -2.27,7.12 -4.43,5.77 Z M 218.19,304.22 c 0.31,-0.08 0.63,-0.16 0.95,-0.24 c -0.13,0.57 -0.48,0.93 -1.05,1.05 c 0.03,-0.27 0.06,-0.54 0.1,-0.81 Z"/></g>
<g><path fill="#d1ccce" d="M 425.86,271.99 c -0.07,-1.12 6.62,0.42 6.07,2.3 c -1.21,0.85 -5.27,-0.94 -6.07,-2.3 Z"/></g>
<g><path fill="#89818b" d="M 345.87,196.33 c 0.87,0.3 1.58,0.78 2.12,1.45 c -1.16,0.02 -2.31,0.14 -3.46,0.34 c -1.4,0.8 -2.89,1.36 -4.46,1.68 c -0.25,-0.64 -0.73,-1.03 -1.43,-1.15 c 0.07,-0.16 0.15,-0.31 0.22,-0.46 c 2.74,0.26 4.44,-1.62 7.01,-1.86 Z M 705.77,269.88 c 0.37,0.02 1.73,0.34 0.81,0.94 c -0.48,-0.13 -0.75,-0.45 -0.81,-0.94 Z"/></g>
<g><path fill="#e1dde0" d="M 424.19,160.03 c -0.25,0.46 -0.64,0.7 -1.16,0.73 c -0.73,-1.86 -5.49,0.12 -6.99,0.37 c -0.55,-0.85 -1.31,-1.45 -2.28,-1.8 c 5.94,-1.52 11.88,-3.03 17.82,-4.51 c 1.62,0.15 1.87,0.79 0.75,1.94 c -2.4,0.46 -4.74,1.14 -7.01,2.05 c -0.71,0.12 -1.09,0.53 -1.13,1.22 Z M 732.87,256.15 c 3.02,-0.73 5.52,2.53 3.59,3.39 c -1.02,-1.06 -2.27,-1.55 -3.73,-1.5 c -0.6,-0.64 -0.55,-1.27 0.14,-1.89 Z"/></g>
<g><path fill="#3f3c3f" d="M 376.2,187.18 c 0.56,-0.27 1.15,-0.33 1.76,-0.18 c -0.77,3.11 -0.89,2.84 2.49,2.39 c 1.42,0.95 -2.3,3.7 -3.23,3.8 c -0.91,-0.64 -1.88,-1.15 -2.92,-1.54 c 0.5,-0.86 1.13,-1.63 1.89,-2.3 c -0.29,-0.43 -0.7,-0.64 -1.22,-0.63 c 0.44,-0.49 0.85,-1 1.23,-1.54 Z M 338.64,198.65 c 0.7,0.12 1.18,0.51 1.43,1.15 c -0.92,0.64 -1.81,1.32 -2.66,2.04 c -1.6,0.16 -3.2,0.32 -4.8,0.48 c -1.8,0.85 -4.53,2.09 -6.41,1.24 c 0.89,-1.53 10.28,-4.25 12.44,-4.91 Z"/></g>
<g><path fill="#413f41" d="M 392.85,169.93 c 0.11,0.62 0.16,1.25 0.16,1.88 c -1.12,0.14 -2.24,0.34 -3.34,0.62 c -3.17,1.68 -5.21,4.13 -9.01,4.44 c 0.07,-0.23 0.13,-0.46 0.2,-0.69 c 0.25,-0.96 0.78,-1.72 1.59,-2.27 c 3.41,-1.46 6.88,-2.79 10.4,-3.98 Z"/></g>
<g><path fill="#21211f" d="M 675.01,825.2 c -0.27,-0.03 -0.55,-0.05 -0.83,-0.08 c -0.07,-0.4 0.07,-0.72 0.42,-0.95 c 2.59,-1.34 5.07,-2.88 7.42,-4.6 c 1.27,-0.92 1.98,-0.63 2.14,0.85 c -0.58,1.82 -7.26,4.55 -9.15,4.78 Z"/></g>
<g><path fill="#353235" d="M 361.32,485.36 c -0.43,2.28 -1.76,3.78 -3.96,4.5 c -0.87,0.03 -1.27,-0.39 -1.2,-1.26 c 0.54,-1.16 1.36,-2.08 2.47,-2.75 c 0.97,0.24 1.87,0.07 2.69,-0.49 Z"/></g>
<g><path fill="#444246" d="M 428.3,766.3 c 1.58,-0.65 3.91,0.02 3.68,2.18 c -0.17,1.33 -0.79,1.65 -1.86,0.95 c -0.63,-1.03 -1.24,-2.07 -1.82,-3.13 Z"/></g>
<g><path fill="#423d43" d="M 498.86,571.63 c 0.73,0.15 1.21,0.57 1.43,1.27 c -0.98,1.11 -4.48,2.04 -4.2,-0.28 c 0.81,-0.61 1.73,-0.94 2.77,-0.99 Z"/></g>
<g><path fill="#464146" d="M 502.9,568.19 c 0.08,0.25 0.17,0.49 0.26,0.74 c -0.16,0.41 -0.31,0.81 -0.46,1.22 c -0.54,-0.25 -0.83,-0.67 -0.86,-1.27 c 0.25,-0.39 0.6,-0.62 1.06,-0.69 Z"/></g>
<g><path fill="#050505" d="M 429.98,481.96 c 1.03,-0.76 2.2,-1.09 3.52,-0.99 c 49,0 98,0 147,0.01 c 2.44,-0.1 4.84,0.14 7.21,0.71 c -52.56,0.25 -105.14,0.35 -157.73,0.27 Z M 216.02,514.98 c 0.16,-0.75 0.64,-1.07 1.44,-0.98 c 32.68,0.1 65.36,0.12 98.04,0.05 c 1.22,0.24 4.36,-0.25 5.24,0.6 c -34.89,0.11 -69.8,0.22 -104.72,0.33 Z M 638.01,514.93 c 0.31,-0.56 0.79,-0.83 1.45,-0.82 c 42.33,-0.06 84.65,-0.04 126.98,0.06 c 1.64,0.26 1.69,0.52 0.17,0.77 c -42.87,-0.03 -85.74,-0.03 -128.6,-0.01 Z"/></g>
<g><path fill="#474745" d="M 867.29,480.09 c 0.79,0.6 0.8,8.82 0.44,10.23 c -0.63,1.34 -1.68,0.23 -1.68,-0.84 c -0.13,-2.42 -0.15,-4.84 -0.04,-7.26 c 0.75,-0.5 1.18,-1.21 1.28,-2.13 Z"/></g>
<g><path fill="#373736" d="M 824.22,324.29 c 0.3,-0.03 0.53,0.09 0.68,0.37 c 1,4.89 4.9,7.33 6.01,11.88 c 0.06,1.59 -0.47,1.87 -1.6,0.83 c -0.48,-2.05 -0.72,-4.2 -2.91,-5.19 c -1.94,-3.1 -1.72,-4.7 -2.18,-7.89 Z"/></g>
<g><path fill="#0f0f0e" stroke="#0f0f0e" stroke-width="0.5" d="M 389.14,210.7 c 0.01,0.46 0.21,0.83 0.58,1.11 c 2.7,0.3 4.83,0.52 5.82,3.54 c -4.04,4.95 -3.71,10.36 -10.04,13.46 c -0.69,0.66 -1.3,1.39 -1.83,2.18 c 4.32,10.85 -5.73,14.97 -14.14,18 c -0.73,0.33 -1.34,0.81 -1.84,1.42 c -1.74,-2.62 -1.74,1.09 -2.27,2.19 c -0.86,0.71 -1.41,1.61 -1.64,2.7 c -0.56,0.19 -1.17,0.27 -1.83,0.24 c -1.53,1.2 -2.77,2.64 -3.7,4.32 c -0.79,0.01 -1.11,-0.39 -0.98,-1.21 c 0.46,-2.03 1,-4.03 1.63,-6 c -0.54,-0.47 -1.17,-0.7 -1.9,-0.71 c 0.43,-0.79 2.94,-2.8 1.24,-3.54 c -10.75,0.17 -10.49,-1.43 -18.9,-6.11 c -2.24,0.03 -4.46,0.21 -6.66,0.53 c -1.63,-0.87 3.25,-5.16 -1.1,-7.76 c -0.23,-0.38 -0.25,-0.77 -0.06,-1.18 c 11.67,-12.18 27.95,-19.91 43.14,-26.64 c 1.49,-0.64 3.22,-4.31 5,-2.56 c -0.94,1.14 -1.98,2.22 -3.12,3.24 c -1.72,1.62 -1.68,3.19 0.13,4.69 c 4.32,-0.23 8.42,-4.94 12.47,-1.91 Z M 377.2,216.73 c 1.25,-0.31 7.95,-1.05 7.27,-2.8 c -2.45,-2.23 -6.17,0.82 -7.27,2.8 Z M 388.81,216.94 c 1.17,-0.33 1.14,-0.59 -0.09,-0.79 c -0.56,0.28 -0.53,0.54 0.09,0.79 Z M 772.14,339.3 c 1.07,-0.13 2.13,-0.27 3.2,-0.44 c 0.81,2.21 1.92,4.26 3.32,6.15 c 5.94,6.69 9.14,14.9 15.25,21.5 c 0.85,0.31 1.27,0 1.28,-0.95 c -0.06,-3.15 -1.88,-2.5 1.13,-4.51 c -0.65,-1.64 -1.04,-3.34 -1.18,-5.12 c 3.07,-0.39 3.51,5.56 6.2,0.95 c 2.57,5.84 5.93,12.08 11.62,15.37 c 1.18,0.78 1.16,-1 2.49,-0.84 c 0.97,0.88 1.97,1.72 3.01,2.52 c 0.87,0.32 1.76,0.52 2.68,0.6 c -0.36,0.83 -0.92,1.49 -1.7,1.97 c 0.43,0.31 0.64,0.71 0.65,1.21 c -0.16,1.03 0.13,1.9 0.87,2.6 c 0.95,0.3 1.38,-0.08 1.3,-1.14 c 0.82,-0.13 1.58,0.04 2.28,0.51 c 0.46,-0.89 1.15,-1.54 2.06,-1.95 c 1.66,3.52 5.06,15.55 0.36,17.49 c -3.09,-0.68 -6.23,-1.15 -9.42,-1.41 c -7.61,-1.94 -12.42,-5.48 -18.49,-10.16 c -2.01,-0.97 -4.61,-1.24 -5.72,1.13 c -0.32,2.56 -0.4,5.12 -0.24,7.7 c -0.36,1.25 -1.19,1.77 -2.5,1.55 c -3.47,-2.94 -7.16,-5.58 -11.08,-7.92 c -5.98,-8.39 -14.61,-8.85 -21.88,-15.27 c -2.94,-3.39 2.89,-7.85 -3.87,-11 c -2.4,-2.57 3.12,-2.15 1.7,-4.01 c -1.12,-0.19 -2.23,-0.36 -3.32,-0.49 c -0.97,-5.29 -6,-3.14 -9.63,-2.62 c -4.35,-2.07 -6.09,-1.44 -10.81,-1.15 c -9.15,-2.92 -18.56,-0.69 -26.63,4.07 c -4.73,2 -18.86,-5.99 -21.92,-1.59 c -2.87,-1.37 -6.39,-1.63 -8.01,-4.77 c -0.11,-0.75 0.18,-1.02 0.87,-0.8 c 1.1,1.61 2.58,2.66 4.45,3.15 c 0.62,-0.81 1.23,-1.63 1.81,-2.47 c 0.68,0.2 1.38,0.29 2.09,0.28 c 11.35,-3.47 18.42,1.36 22.18,-12.84 c -3.49,-6.9 1.74,-9.96 7.4,-12.11 c 4.37,-2.24 -0.33,-8.8 3.58,-9.53 c 6.95,0.22 6.48,5.19 15.14,0.56 c 5.66,-0.37 11.89,9.59 16.46,12.64 c 5.82,5.33 14.17,9.8 18.31,16.59 c 0.73,1.34 0.57,2.54 -0.47,3.61 c -2.58,1.88 -5.48,0.52 -8.23,0.05 c -0.31,0.24 -0.38,0.55 -0.22,0.92 c 2.54,3.84 5.98,6.57 10.32,8.2 c 0.41,0.22 0.75,0.16 1.03,-0.19 c -0.18,-0.96 -0.43,-1.9 -0.74,-2.84 c 0.27,-0.89 0.72,-1.67 1.37,-2.35 c -0.11,-1.16 -0.17,-2.32 -0.18,-3.49 c 0.72,-0.96 1.22,-2.01 1.49,-3.17 c -0.36,-1.37 -0.9,-2.67 -1.61,-3.89 c 0.51,-0.57 1.17,-0.89 1.97,-0.96 c 0.24,-0.44 0.23,-0.88 -0.02,-1.34 Z M 737.11,325.01 c 0.59,3.49 3.55,4.31 2.9,-0.52 c -0.29,-2.86 -2.38,-0.97 -2.9,0.52 Z M 737.99,333 c 2.93,10.81 8.59,8.75 3.81,-1.25 c -1.52,-1.75 -3.54,-0.95 -3.81,1.25 Z M 716.06,335.99 c 0.26,1.29 2.37,2.03 2.94,0.59 c -0.13,-1.88 -2.65,-2.62 -2.94,-0.59 Z M 709.74,340.73 c 0.4,0.07 0.8,0.14 1.2,0.22 c 1.31,-0.2 1.26,-1.97 0.28,-1.65 c -0.5,-0.01 -1.01,-0.03 -1.52,-0.04 c -0.79,0.5 -0.78,0.99 0.04,1.47 Z M 148.11,466.98 c 0.33,0.16 0.57,0.41 0.73,0.74 c 0.03,2.31 0.44,4.55 1.22,6.71 c 0.19,3.41 -0.16,6.76 -1.04,10.06 c -0.38,4.21 0.86,9.16 -1.03,13.05 c 0.11,1.37 0.44,2.7 0.98,3.97 c 0.44,3.15 -0.51,5.17 -0.9,7.96 c -0.13,3.48 0.01,6.88 0.44,10.22 c -0.64,-1.3 -1.39,-2.54 -2.24,-3.72 c -0.41,-16.37 0.2,-32.7 1.84,-48.99 Z"/></g>
</svg>
